# Blender 5.1.2
# www.blender.org
mtllib archer.mtl
o archer
v 0.000000 0.715263 -0.035000
v 0.000000 0.730000 0.020000
v 0.000000 0.000000 -0.220000
v 0.000000 0.540000 -0.130000
v 0.155563 0.000000 -0.155563
v 0.091924 0.540000 -0.091924
v 0.220000 0.000000 0.000000
v 0.130000 0.540000 0.000000
v 0.155563 0.000000 0.155563
v 0.091924 0.540000 0.091924
v 0.000000 0.000000 0.220000
v 0.000000 0.540000 0.130000
v -0.155563 0.000000 0.155563
v -0.091924 0.540000 0.091924
v -0.220000 0.000000 0.000000
v -0.130000 0.540000 0.000000
v -0.155563 0.000000 -0.155563
v -0.091924 0.540000 -0.091924
v 0.208244 0.208846 0.101910
v 0.000000 0.620000 -0.090000
v 0.200979 0.189481 0.113090
v 0.000000 0.524737 -0.035000
v 0.000000 0.510000 0.020000
v 0.032328 0.715263 -0.024496
v 0.220000 0.177513 0.120000
v 0.055994 0.675000 -0.057069
v 0.064656 0.620000 -0.068992
v 0.055994 0.565000 -0.057069
v 0.032328 0.524737 -0.024496
v 0.239021 0.162890 0.048893
v 0.052308 0.715263 0.003004
v 0.231756 0.184488 0.043105
v 0.090600 0.675000 -0.009438
v 0.104616 0.620000 -0.013992
v 0.090600 0.565000 -0.009438
v 0.052308 0.524737 0.003004
v 0.208244 0.184488 0.043105
v 0.052308 0.715263 0.036996
v 0.200979 0.162890 0.048893
v 0.090600 0.675000 0.049438
v 0.104616 0.620000 0.053992
v 0.090600 0.565000 0.049438
v 0.052308 0.524737 0.036996
v 0.000000 0.870000 -0.020000
v 0.032328 0.715263 0.064496
v -0.113137 0.530000 -0.133137
v 0.055994 0.675000 0.097069
v 0.064656 0.620000 0.108992
v 0.055994 0.565000 0.097069
v 0.032328 0.524737 0.064496
v 0.140000 0.460000 0.180000
v 0.000000 0.715263 0.075000
v -0.160000 0.530000 -0.020000
v 0.000000 0.675000 0.115263
v 0.000000 0.620000 0.130000
v 0.000000 0.565000 0.115263
v 0.000000 0.524737 0.075000
v 0.140000 0.380000 -0.020000
v -0.032328 0.715263 0.064496
v -0.113137 0.530000 0.093137
v -0.055994 0.675000 0.097069
v -0.064656 0.620000 0.108992
v -0.055994 0.565000 0.097069
v -0.032328 0.524737 0.064496
v 0.140000 0.460000 -0.020000
v -0.052308 0.715263 0.036996
v 0.000000 0.530000 0.140000
v -0.090600 0.675000 0.049438
v -0.104616 0.620000 0.053992
v -0.090600 0.565000 0.049438
v -0.052308 0.524737 0.036996
v 0.220000 0.380000 0.180000
v -0.052308 0.715263 0.003004
v 0.113137 0.530000 0.093137
v -0.090600 0.675000 -0.009438
v -0.104616 0.620000 -0.013992
v -0.090600 0.565000 -0.009438
v -0.052308 0.524737 0.003004
v 0.220000 0.460000 0.180000
v -0.032328 0.715263 -0.024496
v 0.160000 0.530000 -0.020000
v -0.055994 0.675000 -0.057069
v -0.064656 0.620000 -0.068992
v -0.055994 0.565000 -0.057069
v -0.032328 0.524737 -0.024496
v 0.220000 0.380000 -0.020000
v 0.113137 0.530000 -0.133137
v 0.220000 0.460000 -0.020000
v -0.000000 0.675000 -0.075263
v 0.000000 0.530000 -0.180000
v -0.000000 0.565000 -0.075263
v 0.220000 0.149541 0.052469
v 0.140000 0.380000 0.180000
v 0.231756 0.208846 0.101910
v 0.239021 0.189481 0.113090
v 0.220000 0.222010 0.177990
v 0.200979 0.231782 0.168218
v 0.208244 0.247593 0.152407
v 0.231756 0.247593 0.152407
v 0.239021 0.231782 0.168218
v 0.220000 0.280000 0.222487
v 0.200979 0.286910 0.210519
v 0.208244 0.298090 0.191154
v 0.231756 0.298090 0.191154
v 0.239021 0.286910 0.210519
v 0.220000 0.347531 0.250459
v 0.200979 0.351107 0.237110
v 0.208244 0.356895 0.215512
v 0.231756 0.356895 0.215512
v 0.239021 0.351107 0.237110
v 0.220000 0.420000 0.260000
v 0.200979 0.420000 0.246180
v 0.208244 0.420000 0.223820
v 0.231756 0.420000 0.223820
v 0.239021 0.420000 0.246180
v 0.220000 0.492469 0.250459
v 0.200979 0.488893 0.237110
v 0.208244 0.483105 0.215512
v 0.231756 0.483105 0.215512
v 0.239021 0.488893 0.237110
v 0.220000 0.560000 0.222487
v 0.200979 0.553090 0.210519
v 0.208244 0.541910 0.191154
v 0.231756 0.541910 0.191154
v 0.239021 0.553090 0.210519
v 0.220000 0.617990 0.177990
v 0.200979 0.608218 0.168218
v 0.208244 0.592407 0.152407
v 0.231756 0.592407 0.152407
v 0.239021 0.608218 0.168218
v 0.220000 0.662487 0.120000
v 0.200979 0.650519 0.113090
v 0.208244 0.631154 0.101910
v 0.231756 0.631154 0.101910
v 0.239021 0.650519 0.113090
v 0.220000 0.690459 0.052469
v 0.200979 0.677110 0.048893
v 0.208244 0.655512 0.043105
v 0.231756 0.655512 0.043105
v 0.239021 0.677110 0.048893
v 0.216000 0.170000 0.051000
v 0.216000 0.670000 0.051000
v 0.216000 0.170000 0.043000
v 0.216000 0.670000 0.043000
v 0.224000 0.170000 0.051000
v 0.224000 0.670000 0.051000
v 0.224000 0.170000 0.043000
v 0.224000 0.670000 0.043000
v -0.050000 0.360981 -0.259367
v -0.050000 0.670077 -0.176545
v 0.001962 0.353216 -0.230389
v 0.001962 0.662313 -0.147567
v 0.001962 0.337687 -0.172433
v 0.001962 0.646784 -0.089611
v -0.050000 0.329923 -0.143455
v -0.050000 0.639019 -0.060633
v -0.101962 0.337687 -0.172433
v -0.101962 0.646784 -0.089611
v -0.101962 0.353216 -0.230389
v -0.101962 0.662313 -0.147567
v -0.050000 0.664645 -0.251237
v 0.000000 0.651704 -0.202941
v -0.050000 0.638763 -0.154645
v -0.100000 0.651704 -0.202941
v -0.050000 0.748296 -0.177059
vn -0.0000 -0.0000 -1.0000
vn -0.0000 -0.0000 1.0000
vn -0.0000 -0.1305 -0.9914
vn -0.0000 -0.2588 -0.9659
vn -0.0000 -0.3827 -0.9239
vn -0.0000 -0.6088 -0.7934
vn -0.0000 -0.7934 -0.6088
vn -0.0000 -0.9239 -0.3827
vn -0.0000 -0.9659 -0.2588
vn -0.0000 -1.0000 -0.0000
vn -0.0000 0.1305 -0.9914
vn -0.0000 0.2588 -0.9659
vn -0.0000 0.3827 -0.9239
vn -0.0000 0.6088 -0.7934
vn -0.0000 0.7934 -0.6088
vn -0.0000 0.9239 -0.3827
vn -0.0000 0.9659 0.2588
vn -0.0000 1.0000 -0.0000
vn -0.0838 -0.9625 -0.2579
vn -0.0838 -0.9625 0.2579
vn -0.0838 0.9625 -0.2579
vn -0.0838 0.9625 0.2579
vn -0.2194 -0.9625 -0.1594
vn -0.2194 -0.9625 0.1594
vn -0.2194 0.9625 -0.1594
vn -0.2194 0.9625 0.1594
vn -0.2239 -0.6892 -0.6892
vn -0.2239 -0.6892 0.6892
vn -0.2239 0.6892 -0.6892
vn -0.2239 0.6892 0.6892
vn -0.2712 -0.9625 -0.0000
vn -0.2712 0.9625 -0.0000
vn -0.2994 -0.2469 -0.9216
vn -0.2994 -0.2469 0.9216
vn -0.2994 0.2469 -0.9216
vn -0.2994 0.2469 0.9216
vn -0.3509 0.3987 -0.8473
vn -0.3509 0.3987 0.8473
vn -0.3782 0.1522 -0.9131
vn -0.3782 0.1522 0.9131
vn -0.5000 -0.2241 0.8365
vn -0.5000 0.2241 -0.8365
vn -0.5845 -0.1059 0.8045
vn -0.5845 -0.3105 0.7496
vn -0.5845 -0.4940 0.6437
vn -0.5845 -0.6437 0.4940
vn -0.5845 -0.7496 0.3105
vn -0.5845 0.1059 0.8045
vn -0.5845 0.3105 0.7496
vn -0.5845 0.4940 0.6437
vn -0.5845 0.6437 0.4940
vn -0.5845 0.7496 0.3105
vn -0.5862 -0.6892 -0.4259
vn -0.5862 -0.6892 0.4259
vn -0.5862 0.6892 -0.4259
vn -0.5862 0.6892 0.4259
vn -0.6667 0.1494 0.7302
vn -0.6667 0.4945 -0.5577
vn -0.7246 -0.6892 -0.0000
vn -0.7246 0.6892 -0.0000
vn -0.7840 -0.2469 -0.5696
vn -0.7840 -0.2469 0.5696
vn -0.7840 0.2469 -0.5696
vn -0.7840 0.2469 0.5696
vn -0.8473 0.3987 -0.3509
vn -0.8473 0.3987 0.3509
vn -0.9131 0.1522 -0.3782
vn -0.9131 0.1522 0.3782
vn -0.9503 -0.0406 -0.3088
vn -0.9503 -0.1192 -0.2877
vn -0.9503 -0.1896 -0.2471
vn -0.9503 -0.2471 -0.1896
vn -0.9503 -0.2877 -0.1192
vn -0.9503 0.0406 -0.3088
vn -0.9503 0.1192 -0.2877
vn -0.9503 0.1896 -0.2471
vn -0.9503 0.2471 -0.1896
vn -0.9503 0.2877 -0.1192
vn -0.9690 -0.2469 -0.0000
vn -0.9690 0.2469 -0.0000
vn -1.0000 -0.0000 -0.0000
vn 0.0838 -0.9625 -0.2579
vn 0.0838 -0.9625 0.2579
vn 0.0838 0.9625 -0.2579
vn 0.0838 0.9625 0.2579
vn 0.2194 -0.9625 -0.1594
vn 0.2194 -0.9625 0.1594
vn 0.2194 0.9625 -0.1594
vn 0.2194 0.9625 0.1594
vn 0.2239 -0.6892 -0.6892
vn 0.2239 -0.6892 0.6892
vn 0.2239 0.6892 -0.6892
vn 0.2239 0.6892 0.6892
vn 0.2712 -0.9625 -0.0000
vn 0.2712 0.9625 -0.0000
vn 0.2994 -0.2469 -0.9216
vn 0.2994 -0.2469 0.9216
vn 0.2994 0.2469 -0.9216
vn 0.2994 0.2469 0.9216
vn 0.3509 0.3987 -0.8473
vn 0.3509 0.3987 0.8473
vn 0.3782 0.1522 -0.9131
vn 0.3782 0.1522 0.9131
vn 0.5000 -0.2241 0.8365
vn 0.5000 0.2241 -0.8365
vn 0.5845 -0.1059 0.8045
vn 0.5845 -0.3105 0.7496
vn 0.5845 -0.4940 0.6437
vn 0.5845 -0.6437 0.4940
vn 0.5845 -0.7496 0.3105
vn 0.5845 0.1059 0.8045
vn 0.5845 0.3105 0.7496
vn 0.5845 0.4940 0.6437
vn 0.5845 0.6437 0.4940
vn 0.5845 0.7496 0.3105
vn 0.5862 -0.6892 -0.4259
vn 0.5862 -0.6892 0.4259
vn 0.5862 0.6892 -0.4259
vn 0.5862 0.6892 0.4259
vn 0.6667 0.1494 0.7302
vn 0.6667 0.4945 -0.5577
vn 0.7246 -0.6892 -0.0000
vn 0.7246 0.6892 -0.0000
vn 0.7840 -0.2469 -0.5696
vn 0.7840 -0.2469 0.5696
vn 0.7840 0.2469 -0.5696
vn 0.7840 0.2469 0.5696
vn 0.8473 0.3987 -0.3509
vn 0.8473 0.3987 0.3509
vn 0.9131 0.1522 -0.3782
vn 0.9131 0.1522 0.3782
vn 0.9503 -0.0406 -0.3088
vn 0.9503 -0.1192 -0.2877
vn 0.9503 -0.1896 -0.2471
vn 0.9503 -0.2471 -0.1896
vn 0.9503 -0.2877 -0.1192
vn 0.9503 0.0406 -0.3088
vn 0.9503 0.1192 -0.2877
vn 0.9503 0.1896 -0.2471
vn 0.9503 0.2471 -0.1896
vn 0.9503 0.2877 -0.1192
vn 0.9690 -0.2469 -0.0000
vn 0.9690 0.2469 -0.0000
vn 1.0000 -0.0000 -0.0000
s 0
usemtl dg_robe
f 10//103 11//103 9//103
f 10//103 12//103 11//103
f 11//40 12//40 14//40
f 11//40 14//40 13//40
f 12//18 10//18 8//18
f 13//10 15//10 17//10
f 14//68 15//68 13//68
f 14//68 16//68 15//68
f 15//67 16//67 18//67
f 15//67 18//67 17//67
f 16//18 12//18 8//18
f 16//18 14//18 12//18
f 17//10 3//10 5//10
f 17//10 5//10 9//10
f 18//39 3//39 17//39
f 18//39 4//39 3//39
f 3//102 4//102 6//102
f 3//102 6//102 5//102
f 4//18 18//18 16//18
f 46//10 87//10 74//10
f 46//10 90//10 87//10
f 46//37 44//37 90//37
f 5//10 7//10 9//10
f 51//81 58//81 93//81
f 51//81 65//81 58//81
f 53//65 44//65 46//65
f 6//130 7//130 5//130
f 6//130 8//130 7//130
f 60//10 53//10 46//10
f 60//66 44//66 53//66
f 65//1 86//1 58//1
f 65//1 88//1 86//1
f 65//18 51//18 79//18
f 65//18 79//18 88//18
f 67//38 44//38 60//38
f 7//131 10//131 9//131
f 7//131 8//131 10//131
f 74//10 60//10 46//10
f 74//10 67//10 60//10
f 74//101 44//101 67//101
f 79//2 51//2 93//2
f 79//2 93//2 72//2
f 8//18 4//18 16//18
f 8//18 6//18 4//18
f 81//129 44//129 74//129
f 86//10 72//10 93//10
f 86//10 93//10 58//10
f 87//10 81//10 74//10
f 87//128 44//128 81//128
f 88//144 72//144 86//144
f 88//144 79//144 72//144
f 9//10 11//10 13//10
f 9//10 13//10 17//10
f 90//100 44//100 87//100
usemtl dg_skin
f 1//84 2//84 24//84
f 1//92 24//92 26//92
f 1//92 26//92 89//92
f 20//96 27//96 28//96
f 20//96 28//96 91//96
f 23//19 85//19 22//19
f 23//20 57//20 64//20
f 23//23 78//23 85//23
f 23//24 64//24 71//24
f 23//31 71//31 78//31
f 23//82 22//82 29//82
f 23//83 50//83 57//83
f 23//86 29//86 36//86
f 23//87 43//87 50//87
f 23//94 36//94 43//94
f 24//118 31//118 33//118
f 24//118 33//118 26//118
f 24//88 2//88 31//88
f 26//126 33//126 34//126
f 26//126 34//126 27//126
f 27//124 34//124 35//124
f 27//124 35//124 28//124
f 28//116 35//116 36//116
f 28//116 36//116 29//116
f 31//123 38//123 40//123
f 31//123 40//123 33//123
f 31//95 2//95 38//95
f 33//143 40//143 41//143
f 33//143 41//143 34//143
f 34//142 41//142 42//142
f 34//142 42//142 35//142
f 35//122 42//122 43//122
f 35//122 43//122 36//122
f 38//119 45//119 47//119
f 38//119 47//119 40//119
f 38//89 2//89 45//89
f 40//127 47//127 48//127
f 40//127 48//127 41//127
f 41//125 48//125 49//125
f 41//125 49//125 42//125
f 43//117 42//117 49//117
f 43//117 49//117 50//117
f 45//85 2//85 52//85
f 47//93 45//93 52//93
f 47//93 52//93 54//93
f 47//99 54//99 55//99
f 47//99 55//99 48//99
f 49//91 56//91 57//91
f 49//91 57//91 50//91
f 49//97 48//97 55//97
f 49//97 55//97 56//97
f 52//22 2//22 59//22
f 52//30 59//30 61//30
f 52//30 61//30 54//30
f 54//36 61//36 62//36
f 54//36 62//36 55//36
f 56//28 63//28 64//28
f 56//28 64//28 57//28
f 56//34 55//34 62//34
f 56//34 62//34 63//34
f 59//26 2//26 66//26
f 61//56 59//56 66//56
f 61//56 66//56 68//56
f 61//64 68//64 69//64
f 61//64 69//64 62//64
f 63//54 70//54 71//54
f 63//54 71//54 64//54
f 63//62 62//62 69//62
f 63//62 69//62 70//62
f 66//32 2//32 73//32
f 66//60 73//60 75//60
f 66//60 75//60 68//60
f 68//80 75//80 76//80
f 68//80 76//80 69//80
f 69//79 76//79 77//79
f 69//79 77//79 70//79
f 71//59 70//59 77//59
f 71//59 77//59 78//59
f 73//25 2//25 80//25
f 73//55 80//55 82//55
f 73//55 82//55 75//55
f 75//63 82//63 83//63
f 75//63 83//63 76//63
f 77//53 84//53 85//53
f 77//53 85//53 78//53
f 77//61 76//61 83//61
f 77//61 83//61 84//61
f 80//21 2//21 1//21
f 80//29 1//29 89//29
f 80//29 89//29 82//29
f 82//35 20//35 83//35
f 82//35 89//35 20//35
f 83//33 20//33 91//33
f 83//33 91//33 84//33
f 84//27 22//27 85//27
f 84//27 91//27 22//27
f 89//98 26//98 27//98
f 89//98 27//98 20//98
f 91//90 28//90 29//90
f 91//90 29//90 22//90
usemtl dg_wood
f 100//108 101//108 96//108
f 100//108 105//108 101//108
f 100//109 25//109 95//109
f 100//109 96//109 25//109
f 101//45 102//45 97//45
f 101//45 97//45 96//45
f 102//76 103//76 98//76
f 102//76 98//76 97//76
f 103//14 104//14 99//14
f 103//14 99//14 98//14
f 104//139 100//139 99//139
f 104//139 105//139 100//139
f 105//107 106//107 101//107
f 105//107 110//107 106//107
f 106//44 102//44 101//44
f 106//44 107//44 102//44
f 107//75 103//75 102//75
f 107//75 108//75 103//75
f 108//13 104//13 103//13
f 108//13 109//13 104//13
f 109//137 114//137 115//137
f 109//137 115//137 110//137
f 109//138 105//138 104//138
f 109//138 110//138 105//138
f 110//106 111//106 106//106
f 110//106 115//106 111//106
f 111//43 107//43 106//43
f 111//43 112//43 107//43
f 112//74 108//74 107//74
f 112//74 113//74 108//74
f 113//11 109//11 108//11
f 113//11 114//11 109//11
f 115//111 116//111 111//111
f 115//111 120//111 116//111
f 116//48 112//48 111//48
f 116//48 117//48 112//48
f 117//69 113//69 112//69
f 117//69 118//69 113//69
f 118//3 114//3 113//3
f 118//3 119//3 114//3
f 119//132 115//132 114//132
f 119//132 120//132 115//132
f 121//49 117//49 116//49
f 121//49 122//49 117//49
f 122//70 118//70 117//70
f 122//70 123//70 118//70
f 123//5 119//5 118//5
f 123//5 124//5 119//5
f 124//133 120//133 119//133
f 124//133 125//133 120//133
f 125//112 116//112 120//112
f 125//112 121//112 116//112
f 126//50 122//50 121//50
f 126//50 127//50 122//50
f 127//71 123//71 122//71
f 127//71 128//71 123//71
f 128//6 124//6 123//6
f 128//6 129//6 124//6
f 129//134 125//134 124//134
f 129//134 130//134 125//134
f 130//113 121//113 125//113
f 130//113 126//113 121//113
f 130//114 131//114 126//114
f 130//114 135//114 131//114
f 131//51 127//51 126//51
f 131//51 132//51 127//51
f 131//52 136//52 137//52
f 131//52 137//52 132//52
f 132//72 128//72 127//72
f 132//72 133//72 128//72
f 133//7 129//7 128//7
f 133//7 134//7 129//7
f 134//135 130//135 129//135
f 134//135 135//135 130//135
f 137//12 136//12 140//12
f 137//73 133//73 132//73
f 137//73 138//73 133//73
f 138//8 134//8 133//8
f 138//8 139//8 134//8
f 139//136 135//136 134//136
f 139//136 140//136 135//136
f 140//115 131//115 135//115
f 140//115 136//115 131//115
f 140//12 138//12 137//12
f 140//12 139//12 138//12
f 149//105 150//105 152//105
f 149//105 152//105 151//105
f 150//17 158//17 154//17
f 150//17 160//17 158//17
f 151//9 153//9 155//9
f 151//9 155//9 159//9
f 152//144 153//144 151//144
f 152//144 154//144 153//144
f 154//104 155//104 153//104
f 154//104 156//104 155//104
f 154//17 152//17 150//17
f 155//9 157//9 159//9
f 156//41 157//41 155//41
f 156//41 158//41 157//41
f 157//81 158//81 160//81
f 157//81 160//81 159//81
f 158//17 156//17 154//17
f 159//9 149//9 151//9
f 160//42 149//42 159//42
f 160//42 150//42 149//42
f 19//16 32//16 37//16
f 19//16 94//16 32//16
f 21//77 97//77 98//77
f 21//77 98//77 19//77
f 21//78 19//78 37//78
f 21//78 37//78 39//78
f 25//46 96//46 97//46
f 25//46 97//46 21//46
f 25//47 21//47 39//47
f 25//47 39//47 92//47
f 32//141 94//141 95//141
f 32//141 95//141 30//141
f 32//4 30//4 92//4
f 92//4 37//4 32//4
f 92//4 39//4 37//4
f 95//110 25//110 92//110
f 95//110 92//110 30//110
f 98//15 94//15 19//15
f 98//15 99//15 94//15
f 99//140 100//140 95//140
f 99//140 95//140 94//140
usemtl dg_slash
f 142//81 143//81 141//81
f 142//81 144//81 143//81
f 144//1 147//1 143//1
f 144//1 148//1 147//1
f 144//18 142//18 146//18
f 144//18 146//18 148//18
f 146//2 141//2 145//2
f 146//2 142//2 141//2
f 147//10 141//10 143//10
f 147//10 145//10 141//10
f 148//144 145//144 147//144
f 148//144 146//144 145//144
usemtl dg_feather
f 161//121 165//121 162//121
f 162//120 165//120 163//120
f 163//57 165//57 164//57
f 164//58 165//58 161//58
f 164//9 161//9 162//9
f 164//9 162//9 163//9
