# Blender 5.1.2
# www.blender.org
mtllib arrow.mtl
o arrow
v 0.050000 0.005000 -0.155000
v -0.050000 -0.005000 -0.155000
v 0.000000 0.015000 -0.220000
v 0.000000 0.015000 0.220000
v 0.014266 0.004635 -0.220000
v 0.014266 0.004635 0.220000
v 0.008817 -0.012135 -0.220000
v 0.008817 -0.012135 0.220000
v -0.008817 -0.012135 -0.220000
v -0.008817 -0.012135 0.220000
v -0.014266 0.004635 -0.220000
v -0.014266 0.004635 0.220000
v 0.000000 0.040000 0.210000
v 0.050000 -0.005000 -0.155000
v 0.038042 0.012361 0.210000
v -0.050000 0.005000 -0.225000
v 0.023511 -0.032361 0.210000
v -0.050000 -0.005000 -0.225000
v -0.023511 -0.032361 0.210000
v -0.050000 0.005000 -0.155000
v -0.038042 0.012361 0.210000
v 0.000000 0.000000 0.290000
v 0.050000 -0.005000 -0.225000
v 0.050000 0.005000 -0.225000
v -0.005000 -0.050000 -0.155000
v -0.005000 0.050000 -0.155000
v -0.005000 -0.050000 -0.225000
v -0.005000 0.050000 -0.225000
v 0.005000 -0.050000 -0.155000
v 0.005000 0.050000 -0.155000
v 0.005000 -0.050000 -0.225000
v 0.005000 0.050000 -0.225000
vn -0.0000 -0.0000 -1.0000
vn -0.0000 -0.0000 1.0000
vn -0.0000 -0.9270 0.3750
vn -0.0000 -1.0000 -0.0000
vn -0.0000 1.0000 -0.0000
vn -0.5449 0.7500 0.3750
vn -0.5878 0.8090 -0.0000
vn -0.8817 -0.2865 0.3750
vn -0.9511 -0.3090 -0.0000
vn -1.0000 -0.0000 -0.0000
vn 0.5449 0.7500 0.3750
vn 0.5878 0.8090 -0.0000
vn 0.8817 -0.2865 0.3750
vn 0.9511 -0.3090 -0.0000
vn 1.0000 -0.0000 -0.0000
s 0
usemtl dg_wood
f 10//9 11//9 9//9
f 10//9 12//9 11//9
f 11//1 3//1 5//1
f 12//7 3//7 11//7
f 12//7 4//7 3//7
f 4//12 5//12 3//12
f 4//12 6//12 5//12
f 4//2 10//2 8//2
f 4//2 12//2 10//2
f 5//1 7//1 9//1
f 5//1 9//1 11//1
f 6//14 7//14 5//14
f 6//14 8//14 7//14
f 8//2 6//2 4//2
f 8//4 10//4 9//4
f 8//4 9//4 7//4
usemtl dg_steel
f 13//1 15//1 17//1
f 13//11 22//11 15//11
f 15//13 22//13 17//13
f 17//1 19//1 21//1
f 17//1 21//1 13//1
f 17//3 22//3 19//3
f 19//8 22//8 21//8
f 21//6 22//6 13//6
usemtl dg_feather
f 1//2 2//2 14//2
f 1//2 20//2 2//2
f 16//1 23//1 18//1
f 16//1 24//1 23//1
f 16//5 1//5 24//5
f 16//5 20//5 1//5
f 20//10 16//10 18//10
f 20//10 18//10 2//10
f 23//4 14//4 2//4
f 23//4 2//4 18//4
f 24//15 1//15 14//15
f 24//15 14//15 23//15
f 26//10 27//10 25//10
f 26//10 28//10 27//10
f 28//1 31//1 27//1
f 28//1 32//1 31//1
f 28//5 26//5 30//5
f 28//5 30//5 32//5
f 30//2 25//2 29//2
f 30//2 26//2 25//2
f 31//4 25//4 27//4
f 31//4 29//4 25//4
f 32//15 29//15 31//15
f 32//15 30//15 29//15
