# Blender 5.1.2
# www.blender.org
mtllib brute.mtl
o brute
v -0.270000 0.000000 0.110000
v -0.270000 0.320000 0.110000
v -0.270000 0.000000 -0.110000
v -0.270000 0.320000 -0.110000
v -0.070000 0.000000 0.110000
v -0.070000 0.320000 0.110000
v -0.070000 0.000000 -0.110000
v -0.070000 0.320000 -0.110000
v 0.070000 0.000000 0.110000
v 0.070000 0.320000 0.110000
v 0.070000 0.000000 -0.110000
v 0.070000 0.320000 -0.110000
v 0.270000 0.000000 0.110000
v 0.270000 0.320000 0.110000
v 0.270000 0.000000 -0.110000
v 0.270000 0.320000 -0.110000
v 0.000000 0.998000 0.000000
v 0.000000 0.947358 -0.168000
v 0.171190 1.000000 0.175623
v 0.000000 0.620000 -0.336000
v 0.148255 0.910000 0.168171
v 0.000000 0.292642 -0.168000
v 0.000000 0.242000 0.000000
v 0.085595 0.844115 0.147812
v 0.135778 0.947358 -0.135915
v 0.235175 0.809000 -0.235411
v 0.271557 0.620000 -0.271830
v 0.235175 0.431000 -0.235411
v 0.135778 0.292642 -0.135915
v 0.000000 0.820000 0.120000
v -0.070000 0.995000 0.290000
v 0.219694 0.947358 -0.051915
v 0.380521 0.809000 -0.089919
v 0.439388 0.620000 -0.103830
v 0.380521 0.431000 -0.089919
v 0.219694 0.292642 -0.051915
v 0.085595 0.844115 0.092188
v 0.148255 0.910000 0.071829
v 0.219694 0.947358 0.051915
v 0.380521 0.809000 0.089919
v 0.439388 0.620000 0.103830
v 0.380521 0.431000 0.089919
v 0.219694 0.292642 0.051915
v 0.171190 1.000000 0.064377
v 0.148255 1.090000 0.071829
v 0.135778 0.947358 0.135915
v 0.235175 0.809000 0.235411
v 0.271557 0.620000 0.271830
v 0.235175 0.431000 0.235411
v 0.135778 0.292642 0.135915
v 0.085595 1.155885 0.092188
v 0.000000 1.180000 0.120000
v 0.000000 0.947358 0.168000
v 0.000000 0.809000 0.290985
v 0.000000 0.620000 0.336000
v 0.000000 0.431000 0.290985
v 0.000000 0.292642 0.168000
v -0.049428 1.030000 0.261684
v 0.052901 1.155885 0.047188
v -0.135778 0.947358 0.135915
v -0.235175 0.809000 0.235411
v -0.271557 0.620000 0.271830
v -0.235175 0.431000 0.235411
v -0.135778 0.292642 0.135915
v 0.091627 1.090000 -0.006113
v 0.105801 1.000000 -0.025623
v -0.219694 0.947358 0.051915
v -0.380521 0.809000 0.089919
v -0.439388 0.620000 0.103830
v -0.380521 0.431000 0.089919
v -0.219694 0.292642 0.051915
v 0.091627 0.910000 -0.006113
v 0.052901 0.844115 0.047188
v -0.219694 0.947358 -0.051915
v -0.380521 0.809000 -0.089919
v -0.439388 0.620000 -0.103830
v -0.380521 0.431000 -0.089919
v -0.219694 0.292642 -0.051915
v -0.052184 1.047500 0.265478
v -0.059714 1.060311 0.275842
v -0.135778 0.947358 -0.135915
v -0.235175 0.809000 -0.235411
v -0.271557 0.620000 -0.271830
v -0.235175 0.431000 -0.235411
v -0.135778 0.292642 -0.135915
v 0.000000 0.844115 0.030000
v 0.197358 1.231915 0.120000
v 0.000000 1.000000 -0.060000
v -0.000000 0.809000 -0.290985
v 0.047172 1.092921 0.095000
v -0.000000 0.431000 -0.290985
v 0.000000 1.155885 0.030000
v -0.070000 1.060311 0.272500
v 0.148255 1.090000 0.168171
v 0.085595 1.155885 0.147812
v 0.047172 1.092921 0.145000
v 0.105801 1.000000 0.265623
v 0.091627 0.910000 0.246113
v 0.052901 0.844115 0.192812
v 0.103287 1.030000 0.300816
v 0.091627 1.090000 0.246113
v 0.052901 1.155885 0.192812
v 0.082642 1.068085 0.170000
v 0.000000 1.000000 0.300000
v 0.000000 0.910000 0.275885
v 0.000000 0.844115 0.210000
v -0.070000 1.030000 0.255000
v 0.000000 1.090000 0.275885
v 0.000000 1.155885 0.210000
v -0.197358 1.231915 0.120000
v -0.105801 1.000000 0.265623
v -0.091627 0.910000 0.246113
v -0.052901 0.844115 0.192812
v -0.118113 1.043248 0.095000
v -0.091627 1.090000 0.246113
v -0.052901 1.155885 0.192812
v 0.098827 1.012500 0.299367
v -0.171190 1.000000 0.175623
v -0.148255 0.910000 0.168171
v -0.085595 0.844115 0.147812
v -0.118113 1.043248 0.145000
v -0.148255 1.090000 0.168171
v -0.085595 1.155885 0.147812
v 0.082642 1.068085 0.070000
v -0.171190 1.000000 0.064377
v -0.148255 0.910000 0.071829
v -0.085595 0.844115 0.092188
v -0.082642 1.068085 0.170000
v -0.148255 1.090000 0.071829
v -0.085595 1.155885 0.092188
v -0.070000 0.999689 0.272500
v -0.105801 1.000000 -0.025623
v -0.091627 0.910000 -0.006113
v -0.052901 0.844115 0.047188
v -0.047172 1.092921 0.145000
v -0.091627 1.090000 -0.006113
v -0.052901 1.155885 0.047188
v 0.118113 1.043248 0.095000
v -0.047172 1.092921 0.095000
v -0.000000 0.910000 -0.035885
v 0.086643 0.999689 0.295408
v -0.082642 1.068085 0.070000
v -0.000000 1.090000 -0.035885
v 0.118113 1.043248 0.145000
v -0.070000 1.065000 0.290000
v -0.059714 0.999689 0.275842
v -0.052184 1.012500 0.265478
v 0.070000 0.995000 0.290000
v 0.537355 0.351259 0.544234
v -0.036713 1.030000 0.279184
v -0.041173 1.047500 0.280633
v -0.053357 1.060311 0.284592
v -0.053357 0.999689 0.284592
v -0.041173 1.012500 0.280633
v 0.086643 0.999689 0.284592
v 0.098827 1.012500 0.280633
v -0.036713 1.030000 0.300816
v -0.041173 1.047500 0.299367
v -0.053357 1.060311 0.295408
v -0.053357 0.999689 0.295408
v -0.041173 1.012500 0.299367
v 0.103287 1.030000 0.279184
v 0.098827 1.047500 0.280633
v -0.049428 1.030000 0.318316
v -0.052184 1.047500 0.314522
v -0.059714 1.060311 0.304158
v -0.059714 0.999689 0.304158
v -0.052184 1.012500 0.314522
v 0.086643 1.060311 0.284592
v 0.070000 1.065000 0.290000
v -0.070000 1.030000 0.325000
v -0.070000 1.047500 0.320311
v -0.070000 1.060311 0.307500
v -0.070000 0.999689 0.307500
v -0.070000 1.012500 0.320311
v 0.617493 0.543516 -0.024297
v 0.080286 1.060311 0.275842
v -0.090572 1.030000 0.318316
v -0.087816 1.047500 0.314522
v -0.080286 1.060311 0.304158
v -0.080286 0.999689 0.304158
v -0.087816 1.012500 0.314522
v 0.087816 1.047500 0.265478
v 0.090572 1.030000 0.261684
v -0.103287 1.030000 0.300816
v -0.098827 1.047500 0.299367
v -0.086643 1.060311 0.295408
v -0.086643 0.999689 0.295408
v -0.098827 1.012500 0.299367
v 0.087816 1.012500 0.265478
v 0.080286 0.999689 0.275842
v -0.103287 1.030000 0.279184
v -0.098827 1.047500 0.280633
v -0.086643 1.060311 0.284592
v -0.086643 0.999689 0.284592
v -0.098827 1.012500 0.280633
v 0.558997 0.325758 0.534952
v 0.598183 0.464017 -0.053232
v -0.090572 1.030000 0.261684
v -0.087816 1.047500 0.265478
v -0.080286 1.060311 0.275842
v -0.080286 0.999689 0.275842
v -0.087816 1.012500 0.265478
v 0.070000 0.999689 0.272500
v 0.551273 0.293958 0.523378
v 0.070000 1.030000 0.255000
v -0.070000 1.047500 0.259689
v 0.520000 0.428637 -0.066110
v 0.070000 1.060311 0.272500
v -0.070000 1.012500 0.259689
v 0.520000 0.279806 0.518227
v 0.098827 1.047500 0.299367
v 0.086643 1.060311 0.295408
v 0.090572 1.030000 0.318316
v 0.087816 1.012500 0.314522
v 0.080286 0.999689 0.304158
v 0.087816 1.047500 0.314522
v 0.080286 1.060311 0.304158
v -0.400000 0.820000 -0.090000
v 0.070000 1.030000 0.325000
v 0.070000 1.012500 0.320311
v 0.070000 0.999689 0.307500
v -0.400000 0.380000 -0.090000
v 0.070000 1.047500 0.320311
v 0.070000 1.060311 0.307500
v -0.400000 0.820000 0.090000
v 0.049428 1.030000 0.318316
v 0.052184 1.012500 0.314522
v 0.059714 0.999689 0.304158
v -0.400000 0.380000 0.090000
v 0.052184 1.047500 0.314522
v 0.059714 1.060311 0.304158
v -0.560000 0.820000 -0.090000
v 0.036713 1.030000 0.300816
v 0.041173 1.012500 0.299367
v 0.053357 0.999689 0.295408
v -0.560000 0.380000 -0.090000
v 0.041173 1.047500 0.299367
v 0.053357 1.060311 0.295408
v -0.560000 0.820000 0.090000
v 0.036713 1.030000 0.279184
v 0.041173 1.012500 0.280633
v 0.053357 0.999689 0.284592
v -0.560000 0.380000 0.090000
v 0.041173 1.047500 0.280633
v 0.053357 1.060311 0.284592
v 0.560000 0.820000 -0.090000
v 0.049428 1.030000 0.261684
v 0.052184 1.012500 0.265478
v 0.059714 0.999689 0.275842
v 0.560000 0.380000 -0.090000
v 0.052184 1.047500 0.265478
v 0.059714 1.060311 0.275842
v 0.560000 0.820000 0.090000
v 0.560000 0.380000 0.090000
v 0.070000 1.012500 0.259689
v 0.400000 0.820000 -0.090000
v 0.400000 0.380000 -0.090000
v 0.070000 1.047500 0.259689
v 0.400000 0.820000 0.090000
v 0.400000 0.380000 0.090000
v 0.563388 0.607269 -0.001093
v 0.502645 0.351259 0.544234
v 0.476612 0.607269 -0.001093
v 0.481003 0.325758 0.534952
v 0.422507 0.543516 -0.024297
v 0.488727 0.293958 0.523378
v 0.441817 0.464017 -0.053232
vn -0.0000 -0.0000 -1.0000
vn -0.0000 -0.0000 1.0000
vn -0.0000 -0.3420 0.9397
vn -0.0000 -1.0000 -0.0000
vn -0.0000 0.3420 -0.9397
vn -0.0000 0.9052 0.4250
vn -0.0000 1.0000 -0.0000
vn -0.0680 -0.9552 -0.2879
vn -0.0680 -0.9552 0.2879
vn -0.0680 0.9552 -0.2879
vn -0.0680 0.9552 0.2879
vn -0.0838 -0.9625 -0.2579
vn -0.0838 -0.9625 0.2579
vn -0.0838 0.9625 -0.2579
vn -0.0838 0.9625 0.2579
vn -0.1739 -0.6542 -0.7360
vn -0.1739 -0.6542 0.7360
vn -0.1739 0.6542 -0.7360
vn -0.1739 0.6542 0.7360
vn -0.1803 -0.9670 -0.1801
vn -0.1803 -0.9670 0.1801
vn -0.1803 0.9670 -0.1801
vn -0.1803 0.9670 0.1801
vn -0.2194 -0.9625 -0.1594
vn -0.2194 -0.9625 0.1594
vn -0.2194 0.9625 -0.1594
vn -0.2194 0.9625 0.1594
vn -0.2239 -0.6892 -0.6891
vn -0.2239 -0.6892 -0.6892
vn -0.2239 -0.6892 0.6891
vn -0.2239 -0.6892 0.6892
vn -0.2239 0.6892 -0.6891
vn -0.2239 0.6892 -0.6892
vn -0.2239 0.6892 0.6891
vn -0.2239 0.6892 0.6892
vn -0.2240 -0.2258 -0.9481
vn -0.2240 -0.2258 0.9481
vn -0.2240 0.2258 -0.9481
vn -0.2240 0.2258 0.9481
vn -0.2246 -0.9744 -0.0000
vn -0.2246 0.9744 -0.0000
vn -0.2712 -0.9625 -0.0000
vn -0.2712 0.9625 -0.0000
vn -0.2789 0.4536 -0.8464
vn -0.2789 0.4536 0.8464
vn -0.2994 -0.2469 -0.9216
vn -0.2994 -0.2469 0.9216
vn -0.2994 0.2469 -0.9216
vn -0.2994 0.2469 0.9216
vn -0.2995 0.2469 0.9216
vn -0.4321 -0.8739 -0.2226
vn -0.4961 -0.7129 -0.4956
vn -0.4961 -0.7129 0.4956
vn -0.4961 0.7129 -0.4956
vn -0.4961 0.7129 0.4956
vn -0.5217 -0.1070 -0.8464
vn -0.5217 -0.1070 0.8464
vn -0.5736 -0.8192 -0.0000
vn -0.5862 -0.6892 -0.4259
vn -0.5862 -0.6892 0.4259
vn -0.5862 0.6892 -0.4259
vn -0.5862 0.6892 0.4259
vn -0.6522 -0.7581 -0.0000
vn -0.6522 0.7581 -0.0000
vn -0.6792 0.7339 -0.0000
vn -0.6826 -0.2628 -0.6819
vn -0.6826 -0.2628 0.6819
vn -0.6826 0.2628 -0.6819
vn -0.6826 0.2628 0.6819
vn -0.7246 -0.6892 -0.0000
vn -0.7246 0.6891 -0.0000
vn -0.7246 0.6892 -0.0000
vn -0.7787 0.5528 0.2967
vn -0.7840 -0.2469 -0.5696
vn -0.7840 -0.2469 0.5696
vn -0.7840 0.2469 -0.5696
vn -0.7840 0.2469 0.5696
vn -0.9220 -0.3873 -0.0000
vn -0.9548 -0.2974 -0.0000
vn -0.9548 0.2974 -0.0000
vn -0.9690 -0.2469 -0.0000
vn -0.9690 0.2469 -0.0000
vn -0.9710 -0.2389 0.0085
vn -1.0000 -0.0000 -0.0000
vn 0.0680 -0.9552 -0.2879
vn 0.0680 -0.9552 0.2879
vn 0.0680 0.9552 -0.2879
vn 0.0680 0.9552 0.2879
vn 0.0838 -0.9625 -0.2579
vn 0.0838 -0.9625 0.2579
vn 0.0838 0.9625 -0.2579
vn 0.0838 0.9625 0.2579
vn 0.1739 -0.6542 -0.7360
vn 0.1739 -0.6542 0.7360
vn 0.1739 0.6542 -0.7360
vn 0.1739 0.6542 0.7360
vn 0.1803 -0.9670 -0.1801
vn 0.1803 -0.9670 0.1801
vn 0.1803 0.9670 -0.1801
vn 0.1803 0.9670 0.1801
vn 0.2194 -0.9625 -0.1594
vn 0.2194 -0.9625 0.1594
vn 0.2194 0.9625 -0.1594
vn 0.2194 0.9625 0.1594
vn 0.2239 -0.6892 -0.6891
vn 0.2239 -0.6892 -0.6892
vn 0.2239 -0.6892 0.6891
vn 0.2239 -0.6892 0.6892
vn 0.2239 0.6892 -0.6891
vn 0.2239 0.6892 -0.6892
vn 0.2239 0.6892 0.6891
vn 0.2239 0.6892 0.6892
vn 0.2240 -0.2258 -0.9481
vn 0.2240 -0.2258 0.9481
vn 0.2240 0.2258 -0.9481
vn 0.2240 0.2258 0.9481
vn 0.2246 -0.9744 -0.0000
vn 0.2246 0.9744 -0.0000
vn 0.2712 -0.9625 -0.0000
vn 0.2712 0.9625 -0.0000
vn 0.2789 0.4536 -0.8464
vn 0.2789 0.4536 0.8464
vn 0.2994 -0.2469 -0.9216
vn 0.2994 -0.2469 0.9216
vn 0.2994 0.2469 -0.9216
vn 0.2994 0.2469 0.9216
vn 0.2995 -0.2469 0.9216
vn 0.2995 0.2469 -0.9216
vn 0.4321 -0.8739 -0.2226
vn 0.4961 -0.7129 -0.4956
vn 0.4961 -0.7129 0.4956
vn 0.4961 0.7129 -0.4956
vn 0.4961 0.7129 0.4956
vn 0.5217 -0.1070 -0.8464
vn 0.5217 -0.1070 0.8464
vn 0.5736 -0.8192 -0.0000
vn 0.5862 -0.6892 -0.4259
vn 0.5862 -0.6892 0.4259
vn 0.5862 0.6891 -0.4259
vn 0.5862 0.6892 -0.4259
vn 0.5862 0.6892 0.4259
vn 0.6522 -0.7581 -0.0000
vn 0.6522 0.7581 -0.0000
vn 0.6792 0.7339 -0.0000
vn 0.6826 -0.2628 -0.6819
vn 0.6826 -0.2628 0.6819
vn 0.6826 0.2628 -0.6819
vn 0.6826 0.2628 0.6819
vn 0.7246 -0.6892 -0.0000
vn 0.7246 0.6891 -0.0000
vn 0.7246 0.6892 -0.0000
vn 0.7787 0.5528 0.2967
vn 0.7840 -0.2469 -0.5696
vn 0.7840 -0.2469 0.5696
vn 0.7840 0.2469 -0.5696
vn 0.7840 0.2469 0.5696
vn 0.9220 -0.3873 -0.0000
vn 0.9548 -0.2974 -0.0000
vn 0.9548 0.2974 -0.0000
vn 0.9690 -0.2469 -0.0000
vn 0.9690 0.2469 -0.0000
vn 0.9710 -0.2389 0.0085
vn 1.0000 -0.0000 -0.0000
s 0
usemtl dg_wood
f 10//84 11//84 9//84
f 10//84 12//84 11//84
f 12//1 15//1 11//1
f 12//1 16//1 15//1
f 12//7 10//7 14//7
f 12//7 14//7 16//7
f 14//2 10//2 9//2
f 14//2 9//2 13//2
f 149//3 263//3 265//3
f 15//4 13//4 9//4
f 15//4 9//4 11//4
f 16//163 13//163 15//163
f 16//163 14//163 13//163
f 176//152 149//152 197//152
f 176//152 262//152 149//152
f 176//5 198//5 208//5
f 198//162 176//162 197//162
f 198//162 197//162 205//162
f 2//84 3//84 1//84
f 2//84 4//84 3//84
f 205//3 149//3 265//3
f 205//3 197//3 149//3
f 208//129 198//129 205//129
f 208//129 205//129 211//129
f 208//5 266//5 262//5
f 208//5 268//5 266//5
f 262//5 176//5 208//5
f 262//6 263//6 149//6
f 262//6 264//6 263//6
f 264//73 265//73 263//73
f 264//73 266//73 265//73
f 265//3 267//3 205//3
f 265//83 266//83 268//83
f 265//83 268//83 267//83
f 266//5 264//5 262//5
f 267//3 211//3 205//3
f 267//51 208//51 211//51
f 267//51 268//51 208//51
f 4//1 7//1 3//1
f 4//1 8//1 7//1
f 4//7 2//7 6//7
f 4//7 6//7 8//7
f 6//2 1//2 5//2
f 6//2 2//2 1//2
f 7//4 1//4 3//4
f 7//4 5//4 1//4
f 8//163 5//163 7//163
f 8//163 6//163 5//163
usemtl dg_brute
f 101//112 102//112 109//112
f 101//112 109//112 108//112
f 101//126 104//126 97//126
f 101//126 108//126 104//126
f 102//92 52//92 109//92
f 104//47 111//47 112//47
f 104//47 112//47 105//47
f 104//49 108//49 115//49
f 104//49 115//49 111//49
f 105//31 112//31 113//31
f 105//31 113//31 106//31
f 109//15 52//15 116//15
f 109//35 115//35 108//35
f 109//35 116//35 115//35
f 112//60 119//60 120//60
f 112//60 120//60 113//60
f 112//75 111//75 118//75
f 112//75 118//75 119//75
f 115//62 116//62 123//62
f 115//62 123//62 122//62
f 115//77 118//77 111//77
f 115//77 122//77 118//77
f 116//27 52//27 123//27
f 119//70 126//70 127//70
f 119//70 127//70 120//70
f 119//81 118//81 125//81
f 119//81 125//81 126//81
f 122//72 123//72 130//72
f 122//72 130//72 129//72
f 122//82 125//82 118//82
f 122//82 129//82 125//82
f 123//43 52//43 130//43
f 126//74 125//74 132//74
f 126//74 132//74 133//74
f 127//59 126//59 133//59
f 127//59 133//59 134//59
f 129//76 132//76 125//76
f 129//76 136//76 132//76
f 130//26 52//26 137//26
f 130//61 136//61 129//61
f 130//61 137//61 136//61
f 133//29 140//29 86//29
f 133//29 86//29 134//29
f 133//46 132//46 88//46
f 133//46 88//46 140//46
f 136//48 143//48 88//48
f 136//48 88//48 132//48
f 137//14 52//14 92//14
f 137//33 143//33 136//33
f 137//33 92//33 143//33
f 140//106 72//106 73//106
f 140//106 73//106 86//106
f 143//125 65//125 66//125
f 143//125 66//125 88//125
f 18//87 17//87 25//87
f 19//154 97//154 98//154
f 19//154 98//154 21//154
f 19//156 101//156 97//156
f 19//156 94//156 101//156
f 20//113 27//113 28//113
f 20//113 28//113 91//113
f 20//115 26//115 27//115
f 20//115 89//115 26//115
f 219//163 226//163 230//163
f 219//163 230//163 223//163
f 223//4 230//4 244//4
f 223//4 244//4 237//4
f 226//2 240//2 244//2
f 226//2 244//2 230//2
f 23//117 36//117 43//117
f 23//20 78//20 85//20
f 23//21 64//21 71//21
f 23//40 71//40 78//40
f 23//8 85//8 22//8
f 23//85 22//85 29//85
f 23//86 50//86 57//86
f 23//9 57//9 64//9
f 23//97 29//97 36//97
f 23//98 43//98 50//98
f 233//1 219//1 223//1
f 233//1 223//1 237//1
f 233//7 226//7 219//7
f 233//7 240//7 226//7
f 24//138 21//138 98//138
f 24//138 98//138 99//138
f 240//84 233//84 237//84
f 240//84 237//84 244//84
f 247//163 254//163 255//163
f 247//163 255//163 251//163
f 25//99 17//99 32//99
f 251//4 255//4 261//4
f 251//4 261//4 258//4
f 254//2 260//2 261//2
f 254//2 261//2 255//2
f 257//1 247//1 251//1
f 257//1 251//1 258//1
f 257//7 254//7 247//7
f 257//7 260//7 254//7
f 26//132 25//132 32//132
f 26//132 32//132 33//132
f 260//84 257//84 258//84
f 260//84 258//84 261//84
f 27//145 34//145 35//145
f 27//145 35//145 28//145
f 27//147 26//147 33//147
f 27//147 33//147 34//147
f 28//130 35//130 36//130
f 28//130 36//130 29//130
f 30//101 73//101 37//101
f 30//102 24//102 99//102
f 30//119 37//119 24//119
f 30//12 134//12 86//12
f 30//13 106//13 113//13
f 30//24 127//24 134//24
f 30//25 113//25 120//25
f 30//42 120//42 127//42
f 30//89 86//89 73//89
f 30//90 99//90 106//90
f 32//118 17//118 39//118
f 32//143 39//143 40//143
f 32//143 40//143 33//143
f 34//158 41//158 42//158
f 34//158 42//158 35//158
f 34//159 33//159 40//159
f 34//159 40//159 41//159
f 35//142 42//142 43//142
f 35//142 43//142 36//142
f 38//149 21//149 24//149
f 38//149 24//149 37//149
f 39//100 17//100 46//100
f 39//133 46//133 47//133
f 39//133 47//133 40//133
f 40//148 47//148 48//148
f 40//148 48//148 41//148
f 42//146 41//146 48//146
f 42//146 48//146 49//146
f 43//131 42//131 49//131
f 43//131 49//131 50//131
f 44//160 19//160 21//160
f 44//160 21//160 38//160
f 45//161 19//161 44//161
f 45//161 94//161 19//161
f 46//88 17//88 53//88
f 46//96 53//96 54//96
f 46//96 54//96 47//96
f 47//116 54//116 55//116
f 47//116 55//116 48//116
f 49//114 48//114 55//114
f 49//114 55//114 56//114
f 50//94 49//94 56//94
f 50//94 56//94 57//94
f 51//120 52//120 95//120
f 51//151 94//151 45//151
f 51//151 95//151 94//151
f 53//11 17//11 60//11
f 54//19 53//19 60//19
f 54//19 60//19 61//19
f 55//37 62//37 63//37
f 55//37 63//37 56//37
f 55//39 54//39 61//39
f 55//39 61//39 62//39
f 56//17 63//17 64//17
f 56//17 64//17 57//17
f 59//103 52//103 51//103
f 59//140 45//140 65//140
f 59//140 51//140 45//140
f 60//23 17//23 67//23
f 61//55 60//55 67//55
f 61//55 67//55 68//55
f 62//67 69//67 70//67
f 62//67 70//67 63//67
f 62//69 61//69 68//69
f 62//69 68//69 69//69
f 63//53 70//53 71//53
f 63//53 71//53 64//53
f 65//155 44//155 66//155
f 65//155 45//155 44//155
f 67//41 17//41 74//41
f 68//64 67//64 74//64
f 68//64 74//64 75//64
f 69//80 68//80 75//80
f 69//80 75//80 76//80
f 70//63 77//63 78//63
f 70//63 78//63 71//63
f 70//79 69//79 76//79
f 70//79 76//79 77//79
f 72//137 37//137 73//137
f 72//137 38//137 37//137
f 72//153 44//153 38//153
f 72//153 66//153 44//153
f 74//22 17//22 81//22
f 74//54 81//54 82//54
f 74//54 82//54 75//54
f 75//68 82//68 83//68
f 75//68 83//68 76//68
f 77//66 76//66 83//66
f 77//66 83//66 84//66
f 78//52 77//52 84//52
f 78//52 84//52 85//52
f 81//10 17//10 18//10
f 81//18 18//18 89//18
f 81//18 89//18 82//18
f 82//38 20//38 83//38
f 82//38 89//38 20//38
f 84//36 20//36 91//36
f 84//36 83//36 20//36
f 85//16 84//16 91//16
f 85//16 91//16 22//16
f 88//123 66//123 72//123
f 88//123 72//123 140//123
f 89//95 18//95 25//95
f 89//95 25//95 26//95
f 91//93 28//93 29//93
f 91//93 29//93 22//93
f 92//110 59//110 65//110
f 92//110 65//110 143//110
f 92//91 52//91 59//91
f 95//104 52//104 102//104
f 95//141 101//141 94//141
f 95//141 102//141 101//141
f 98//108 105//108 106//108
f 98//108 106//108 99//108
f 98//124 104//124 105//124
f 98//124 97//124 104//124
usemtl dg_horn
f 103//45 87//45 96//45
f 114//136 142//136 139//136
f 114//56 110//56 142//56
f 121//78 110//78 114//78
f 124//134 87//134 138//134
f 124//58 138//58 144//58
f 128//136 121//136 114//136
f 128//57 110//57 121//57
f 135//122 110//122 128//122
f 138//157 87//157 144//157
f 139//136 128//136 114//136
f 139//136 135//136 128//136
f 139//144 110//144 135//144
f 142//121 110//121 139//121
f 144//135 87//135 103//135
f 144//58 103//58 96//58
f 90//44 87//44 124//44
f 96//58 124//58 144//58
f 96//58 90//58 124//58
f 96//65 87//65 90//65
usemtl dg_eye
f 107//123 147//123 210//123
f 107//123 58//123 147//123
f 117//138 215//138 216//138
f 117//138 216//138 141//138
f 117//154 100//154 214//154
f 117//154 214//154 215//154
f 131//105 210//105 147//105
f 131//106 147//106 146//106
f 147//137 153//137 146//137
f 147//137 154//137 153//137
f 147//153 150//153 154//153
f 147//153 58//153 150//153
f 148//101 191//101 155//101
f 148//102 141//102 216//102
f 148//119 155//119 141//119
f 148//12 250//12 204//12
f 148//13 222//13 229//13
f 148//24 243//24 250//24
f 148//25 229//25 236//25
f 148//42 236//42 243//42
f 148//89 204//89 191//89
f 148//90 216//90 222//90
f 150//160 157//160 161//160
f 150//160 161//160 154//160
f 151//161 157//161 150//161
f 151//161 158//161 157//161
f 152//120 145//120 159//120
f 152//150 158//150 151//150
f 152//151 159//151 158//151
f 153//149 154//149 161//149
f 153//149 161//149 160//149
f 156//149 117//149 141//149
f 156//149 141//149 155//149
f 158//141 159//141 166//141
f 158//141 166//141 165//141
f 158//156 164//156 157//156
f 158//156 165//156 164//156
f 159//104 145//104 166//104
f 160//138 161//138 168//138
f 160//138 168//138 167//138
f 161//154 157//154 164//154
f 161//154 164//154 168//154
f 162//160 100//160 117//160
f 162//160 117//160 156//160
f 163//161 100//161 162//161
f 163//161 212//161 100//161
f 164//124 171//124 175//124
f 164//127 175//127 168//127
f 165//126 171//126 164//126
f 165//126 172//126 171//126
f 166//111 172//111 165//111
f 166//112 173//112 172//112
f 166//92 145//92 173//92
f 168//107 175//107 174//107
f 168//108 174//108 167//108
f 169//120 170//120 213//120
f 169//150 212//150 163//150
f 169//151 213//151 212//151
f 171//47 178//47 182//47
f 171//47 182//47 175//47
f 171//49 172//49 179//49
f 171//49 179//49 178//49
f 173//15 145//15 180//15
f 173//34 179//34 172//34
f 173//35 180//35 179//35
f 174//30 175//30 182//30
f 174//31 182//31 181//31
f 177//103 170//103 169//103
f 177//139 163//139 183//139
f 177//140 169//140 163//140
f 178//75 185//75 189//75
f 178//75 189//75 182//75
f 178//77 179//77 186//77
f 178//77 186//77 185//77
f 180//27 145//27 187//27
f 180//62 186//62 179//62
f 180//62 187//62 186//62
f 182//60 188//60 181//60
f 182//60 189//60 188//60
f 183//155 162//155 184//155
f 183//155 163//155 162//155
f 184//153 156//153 190//153
f 184//153 162//153 156//153
f 185//81 192//81 196//81
f 185//81 196//81 189//81
f 186//82 192//82 185//82
f 186//82 193//82 192//82
f 187//43 145//43 194//43
f 187//71 193//71 186//71
f 187//72 194//72 193//72
f 189//70 195//70 188//70
f 189//70 196//70 195//70
f 190//137 155//137 191//137
f 190//137 156//137 155//137
f 193//76 199//76 192//76
f 193//76 200//76 199//76
f 194//26 145//26 201//26
f 194//61 200//61 193//61
f 194//61 201//61 200//61
f 195//59 196//59 203//59
f 195//59 203//59 202//59
f 196//74 192//74 199//74
f 196//74 199//74 203//74
f 200//32 93//32 207//32
f 200//33 201//33 93//33
f 200//48 107//48 199//48
f 200//48 207//48 107//48
f 201//14 145//14 93//14
f 203//28 210//28 131//28
f 203//29 131//29 202//29
f 203//46 107//46 210//46
f 203//46 199//46 107//46
f 206//123 184//123 190//123
f 206//123 190//123 256//123
f 206//125 183//125 184//125
f 206//125 259//125 183//125
f 207//125 58//125 107//125
f 207//128 79//128 58//128
f 209//109 183//109 259//109
f 209//110 177//110 183//110
f 209//91 170//91 177//91
f 212//156 214//156 100//156
f 212//156 217//156 214//156
f 213//104 170//104 218//104
f 213//141 217//141 212//141
f 213//141 218//141 217//141
f 215//107 221//107 222//107
f 215//108 222//108 216//108
f 215//124 214//124 220//124
f 215//124 220//124 221//124
f 217//111 225//111 224//111
f 217//112 218//112 225//112
f 217//126 220//126 214//126
f 217//126 224//126 220//126
f 218//92 170//92 225//92
f 220//47 227//47 228//47
f 220//47 228//47 221//47
f 221//30 228//30 229//30
f 221//31 229//31 222//31
f 224//49 227//49 220//49
f 224//50 231//50 227//50
f 225//15 170//15 232//15
f 225//34 231//34 224//34
f 225//35 232//35 231//35
f 227//75 234//75 235//75
f 227//75 235//75 228//75
f 227//77 231//77 238//77
f 227//77 238//77 234//77
f 228//60 235//60 236//60
f 228//60 236//60 229//60
f 231//62 232//62 239//62
f 231//62 239//62 238//62
f 232//27 170//27 239//27
f 234//81 241//81 242//81
f 234//81 242//81 235//81
f 235//70 242//70 243//70
f 235//70 243//70 236//70
f 238//82 241//82 234//82
f 238//82 245//82 241//82
f 239//43 170//43 246//43
f 239//71 245//71 238//71
f 239//72 246//72 245//72
f 241//74 248//74 249//74
f 241//74 249//74 242//74
f 241//76 245//76 252//76
f 241//76 252//76 248//76
f 243//59 242//59 249//59
f 243//59 249//59 250//59
f 246//26 170//26 253//26
f 246//61 252//61 245//61
f 246//61 253//61 252//61
f 249//28 256//28 204//28
f 249//29 204//29 250//29
f 249//46 206//46 256//46
f 249//46 248//46 206//46
f 252//32 209//32 259//32
f 252//33 253//33 209//33
f 252//48 206//48 248//48
f 252//48 259//48 206//48
f 253//14 170//14 209//14
f 256//105 190//105 191//105
f 256//106 191//106 204//106
f 31//101 146//101 153//101
f 31//102 160//102 167//102
f 31//119 153//119 160//119
f 31//12 202//12 131//12
f 31//13 174//13 181//13
f 31//24 195//24 202//24
f 31//25 181//25 188//25
f 31//42 188//42 195//42
f 31//89 131//89 146//89
f 31//90 167//90 174//90
f 79//140 152//140 151//140
f 79//140 80//140 152//140
f 79//155 150//155 58//155
f 79//155 151//155 150//155
f 80//103 145//103 152//103
f 93//109 79//109 207//109
f 93//110 80//110 79//110
f 93//91 145//91 80//91
