# Blender 5.1.2
# www.blender.org
mtllib coin.mtl
o coin
v -0.015000 0.190000 0.018500
v -0.015000 0.090000 0.018500
v 0.000000 0.260000 -0.015000
v 0.000000 0.260000 0.015000
v 0.052066 0.248116 -0.015000
v 0.052066 0.248116 0.015000
v 0.093820 0.214819 -0.015000
v 0.093820 0.214819 0.015000
v 0.116991 0.166703 -0.015000
v 0.116991 0.166703 0.015000
v 0.116991 0.113297 -0.015000
v 0.116991 0.113297 0.015000
v 0.093820 0.065181 -0.015000
v 0.093820 0.065181 0.015000
v 0.052066 0.031884 -0.015000
v 0.052066 0.031884 0.015000
v 0.000000 0.020000 -0.015000
v 0.000000 0.020000 0.015000
v -0.052066 0.031884 -0.015000
v -0.052066 0.031884 0.015000
v -0.093820 0.065181 -0.015000
v -0.093820 0.065181 0.015000
v -0.116991 0.113297 -0.015000
v -0.116991 0.113297 0.015000
v -0.116991 0.166703 -0.015000
v -0.116991 0.166703 0.015000
v -0.093820 0.214819 -0.015000
v -0.093820 0.214819 0.015000
v -0.052066 0.248116 -0.015000
v -0.052066 0.248116 0.015000
v -0.015000 0.090000 0.013500
v -0.015000 0.190000 0.013500
v 0.015000 0.090000 0.018500
v 0.015000 0.190000 0.018500
v 0.015000 0.090000 0.013500
v 0.015000 0.190000 0.013500
vn 0.2225 0.9749 -0.0000
vn 0.6235 0.7818 -0.0000
vn 0.9010 0.4339 -0.0000
vn 1.0000 -0.0000 -0.0000
vn 0.9010 -0.4339 -0.0000
vn 0.6235 -0.7818 -0.0000
vn 0.2225 -0.9749 -0.0000
vn -0.0000 1.0000 -0.0000
vn -0.2225 -0.9749 -0.0000
vn -0.0000 -1.0000 -0.0000
vn -0.6235 -0.7818 -0.0000
vn -0.0000 -0.0000 1.0000
vn -0.9010 -0.4339 -0.0000
vn -1.0000 -0.0000 -0.0000
vn -0.0000 -0.0000 -1.0000
vn -0.9010 0.4339 -0.0000
vn -0.6235 0.7818 -0.0000
vn -0.2225 0.9749 -0.0000
s 0
usemtl dg_gold
f 4//1 5//1 3//1
f 6//2 7//2 5//2
f 8//3 9//3 7//3
f 9//4 12//4 11//4
f 11//5 14//5 13//5
f 14//6 15//6 13//6
f 16//7 17//7 15//7
f 18//9 19//9 17//9
f 20//11 21//11 19//11
f 22//13 23//13 21//13
f 24//14 25//14 23//14
f 26//16 27//16 25//16
f 28//12 20//12 12//12
f 27//17 30//17 29//17
f 30//18 3//18 29//18
f 9//15 17//15 25//15
f 4//1 6//1 5//1
f 6//2 8//2 7//2
f 8//3 10//3 9//3
f 9//4 10//4 12//4
f 11//5 12//5 14//5
f 14//6 16//6 15//6
f 16//7 18//7 17//7
f 18//9 20//9 19//9
f 20//11 22//11 21//11
f 22//13 24//13 23//13
f 24//14 26//14 25//14
f 26//16 28//16 27//16
f 8//12 6//12 4//12
f 4//12 30//12 28//12
f 28//12 26//12 24//12
f 24//12 22//12 20//12
f 20//12 18//12 16//12
f 16//12 14//12 12//12
f 12//12 10//12 8//12
f 8//12 4//12 28//12
f 28//12 24//12 20//12
f 20//12 16//12 12//12
f 12//12 8//12 28//12
f 27//17 28//17 30//17
f 30//18 4//18 3//18
f 29//15 3//15 5//15
f 5//15 7//15 9//15
f 9//15 11//15 13//15
f 13//15 15//15 17//15
f 17//15 19//15 21//15
f 21//15 23//15 25//15
f 25//15 27//15 29//15
f 29//15 5//15 9//15
f 9//15 13//15 17//15
f 17//15 21//15 25//15
f 25//15 29//15 9//15
usemtl dg_horn
f 32//8 34//8 36//8
f 35//10 2//10 31//10
f 34//12 2//12 33//12
f 36//4 33//4 35//4
f 32//15 35//15 31//15
f 1//14 31//14 2//14
f 32//8 1//8 34//8
f 35//10 33//10 2//10
f 34//12 1//12 2//12
f 36//4 34//4 33//4
f 32//15 36//15 35//15
f 1//14 32//14 31//14
