# Blender 5.1.2
# www.blender.org
mtllib goal.mtl
o goal
v 0.235589 0.300000 -0.097584
v 0.207873 0.300000 -0.086104
v 0.000000 0.000000 -0.300000
v 0.000000 0.120000 -0.260000
v 0.212132 0.000000 -0.212132
v 0.183848 0.120000 -0.183848
v 0.300000 0.000000 0.000000
v 0.260000 0.120000 0.000000
v 0.212132 0.000000 0.212132
v 0.183848 0.120000 0.183848
v 0.000000 0.000000 0.300000
v 0.000000 0.120000 0.260000
v -0.212132 0.000000 0.212132
v -0.183848 0.120000 0.183848
v -0.300000 0.000000 0.000000
v -0.260000 0.120000 0.000000
v -0.212132 0.000000 -0.212132
v -0.183848 0.120000 -0.183848
v 0.000000 0.240000 -0.130000
v 0.112583 0.240000 -0.065000
v 0.112583 0.240000 -0.065000
v 0.221731 0.315000 -0.091844
v 0.112583 0.240000 0.065000
v 0.000000 0.240000 -0.130000
v 0.000000 0.240000 0.130000
v 0.000000 0.120000 0.000000
v -0.112583 0.240000 0.065000
v 0.255000 0.300000 0.000000
v -0.112583 0.240000 -0.065000
v 0.000000 0.600000 0.000000
v 0.112583 0.240000 0.065000
v 0.240000 0.285000 0.000000
v 0.000000 0.240000 0.130000
v 0.225000 0.300000 0.000000
v -0.112583 0.240000 0.065000
v 0.240000 0.315000 0.000000
v -0.112583 0.240000 -0.065000
v 0.221731 0.285000 -0.091844
v 0.180312 0.300000 -0.180312
v 0.169706 0.315000 -0.169706
v 0.159099 0.300000 -0.159099
v 0.169706 0.285000 -0.169706
v 0.097584 0.300000 -0.235589
v 0.091844 0.315000 -0.221731
v 0.086104 0.300000 -0.207873
v 0.091844 0.285000 -0.221731
v 0.000000 0.300000 -0.255000
v 0.000000 0.315000 -0.240000
v 0.000000 0.300000 -0.225000
v 0.000000 0.285000 -0.240000
v -0.097584 0.300000 -0.235589
v -0.091844 0.315000 -0.221731
v -0.086104 0.300000 -0.207873
v -0.091844 0.285000 -0.221731
v -0.180312 0.300000 -0.180312
v -0.169706 0.315000 -0.169706
v -0.159099 0.300000 -0.159099
v -0.169706 0.285000 -0.169706
v -0.235589 0.300000 -0.097584
v -0.221731 0.315000 -0.091844
v -0.207873 0.300000 -0.086104
v -0.221731 0.285000 -0.091844
v -0.255000 0.300000 -0.000000
v -0.240000 0.315000 -0.000000
v -0.225000 0.300000 -0.000000
v -0.240000 0.285000 -0.000000
v -0.235589 0.300000 0.097584
v -0.221731 0.315000 0.091844
v -0.207873 0.300000 0.086104
v -0.221731 0.285000 0.091844
v -0.180312 0.300000 0.180312
v -0.169706 0.315000 0.169706
v -0.159099 0.300000 0.159099
v -0.169706 0.285000 0.169706
v -0.097584 0.300000 0.235589
v -0.091844 0.315000 0.221731
v -0.086104 0.300000 0.207873
v -0.091844 0.285000 0.221731
v -0.000000 0.300000 0.255000
v -0.000000 0.315000 0.240000
v -0.000000 0.300000 0.225000
v -0.000000 0.285000 0.240000
v 0.097584 0.300000 0.235589
v 0.091844 0.315000 0.221731
v 0.086104 0.300000 0.207873
v 0.091844 0.285000 0.221731
v 0.180312 0.300000 0.180312
v 0.169706 0.315000 0.169706
v 0.159099 0.300000 0.159099
v 0.169706 0.285000 0.169706
v 0.235589 0.300000 0.097584
v 0.221731 0.315000 0.091844
v 0.207873 0.300000 0.086104
v 0.221731 0.285000 0.091844
vn -0.0000 -1.0000 -0.0000
vn -0.0000 1.0000 -0.0000
vn -0.1393 -0.7002 -0.7002
vn -0.1393 -0.7002 0.7002
vn -0.1393 0.7002 -0.7002
vn -0.1393 0.7002 0.7002
vn -0.3646 -0.6842 -0.6316
vn -0.3646 -0.6842 0.6316
vn -0.3657 0.2943 -0.8830
vn -0.3657 0.2943 0.8830
vn -0.3966 -0.7002 -0.5936
vn -0.3966 -0.7002 0.5936
vn -0.3966 0.7002 -0.5936
vn -0.3966 0.7002 0.5936
vn -0.4772 0.2985 -0.8265
vn -0.4772 0.2985 0.8265
vn -0.5936 -0.7002 -0.3966
vn -0.5936 -0.7002 0.3966
vn -0.5936 0.7002 -0.3966
vn -0.5936 0.7002 0.3966
vn -0.7002 -0.7002 -0.1393
vn -0.7002 -0.7002 0.1393
vn -0.7002 0.7002 -0.1393
vn -0.7002 0.7002 0.1393
vn -0.7293 -0.6842 -0.0000
vn -0.8830 0.2943 -0.3657
vn -0.8830 0.2943 0.3657
vn -0.9544 0.2985 -0.0000
vn 0.1393 -0.7002 -0.7002
vn 0.1393 -0.7002 0.7002
vn 0.1393 0.7002 -0.7002
vn 0.1393 0.7002 0.7002
vn 0.3646 -0.6842 -0.6316
vn 0.3646 -0.6842 0.6316
vn 0.3657 0.2943 -0.8830
vn 0.3657 0.2943 0.8830
vn 0.3966 -0.7002 -0.5936
vn 0.3966 -0.7002 0.5936
vn 0.3966 0.7002 -0.5936
vn 0.3966 0.7002 0.5936
vn 0.4772 0.2985 -0.8265
vn 0.4772 0.2985 0.8265
vn 0.5936 -0.7002 -0.3966
vn 0.5936 -0.7002 0.3966
vn 0.5936 0.7002 -0.3966
vn 0.5936 0.7002 0.3966
vn 0.7002 -0.7002 -0.1393
vn 0.7002 -0.7002 0.1393
vn 0.7002 0.7002 -0.1393
vn 0.7002 0.7002 0.1393
vn 0.7293 -0.6842 -0.0000
vn 0.8830 0.2943 -0.3657
vn 0.8830 0.2943 0.3657
vn 0.9544 0.2985 -0.0000
s 0
usemtl dg_stone
f 10//36 11//36 9//36
f 10//36 12//36 11//36
f 12//10 13//10 11//10
f 12//10 14//10 13//10
f 12//2 10//2 8//2
f 13//1 15//1 17//1
f 14//27 15//27 13//27
f 14//27 16//27 15//27
f 16//2 12//2 8//2
f 16//2 14//2 12//2
f 16//26 17//26 15//26
f 16//26 18//26 17//26
f 17//1 3//1 5//1
f 17//1 5//1 9//1
f 18//9 3//9 17//9
f 18//9 4//9 3//9
f 4//2 18//2 16//2
f 4//35 5//35 3//35
f 4//35 6//35 5//35
f 5//1 7//1 9//1
f 6//52 7//52 5//52
f 6//52 8//52 7//52
f 8//2 4//2 16//2
f 8//2 6//2 4//2
f 8//53 10//53 9//53
f 8//53 9//53 7//53
f 9//1 11//1 13//1
f 9//1 13//1 17//1
usemtl dg_crystal
f 19//41 30//41 21//41
f 21//1 23//1 25//1
f 21//54 30//54 23//54
f 23//42 30//42 25//42
f 24//2 35//2 31//2
f 24//2 37//2 35//2
f 25//1 27//1 29//1
f 25//1 29//1 21//1
f 25//16 30//16 27//16
f 26//25 35//25 37//25
f 26//33 24//33 20//33
f 26//34 31//34 33//34
f 26//51 20//51 31//51
f 26//7 37//7 24//7
f 26//8 33//8 35//8
f 27//28 30//28 29//28
f 29//1 19//1 21//1
f 29//15 30//15 19//15
f 31//2 20//2 24//2
f 35//2 33//2 31//2
usemtl dg_gold
f 1//45 39//45 40//45
f 1//45 40//45 22//45
f 1//49 22//49 36//49
f 1//49 36//49 28//49
f 2//22 32//22 34//22
f 2//22 38//22 32//22
f 22//20 40//20 41//20
f 22//20 41//20 2//20
f 22//24 2//24 34//24
f 22//24 34//24 36//24
f 28//50 36//50 92//50
f 28//50 92//50 91//50
f 34//21 32//21 94//21
f 34//21 94//21 93//21
f 38//47 1//47 28//47
f 38//47 28//47 32//47
f 41//12 45//12 46//12
f 41//12 46//12 42//12
f 41//18 38//18 2//18
f 41//18 42//18 38//18
f 42//43 1//43 38//43
f 42//43 39//43 1//43
f 43//39 40//39 39//39
f 43//39 44//39 40//39
f 44//14 41//14 40//14
f 44//14 45//14 41//14
f 44//6 48//6 49//6
f 44//6 49//6 45//6
f 46//29 47//29 43//29
f 46//29 50//29 47//29
f 46//37 39//37 42//37
f 46//37 43//37 39//37
f 47//31 44//31 43//31
f 47//31 48//31 44//31
f 49//4 46//4 45//4
f 49//4 50//4 46//4
f 51//13 55//13 56//13
f 51//13 56//13 52//13
f 51//5 48//5 47//5
f 51//5 52//5 48//5
f 52//32 49//32 48//32
f 52//32 53//32 49//32
f 52//40 56//40 57//40
f 52//40 57//40 53//40
f 53//30 50//30 49//30
f 53//30 54//30 50//30
f 54//3 47//3 50//3
f 54//3 51//3 47//3
f 57//38 54//38 53//38
f 57//38 58//38 54//38
f 57//44 61//44 62//44
f 57//44 62//44 58//44
f 58//11 51//11 54//11
f 58//11 55//11 51//11
f 59//19 56//19 55//19
f 59//19 60//19 56//19
f 60//46 57//46 56//46
f 60//46 61//46 57//46
f 60//50 64//50 65//50
f 60//50 65//50 61//50
f 62//17 55//17 58//17
f 62//17 59//17 55//17
f 62//21 63//21 59//21
f 62//21 66//21 63//21
f 63//23 60//23 59//23
f 63//23 64//23 60//23
f 65//48 62//48 61//48
f 65//48 66//48 62//48
f 67//20 71//20 72//20
f 67//20 72//20 68//20
f 67//24 64//24 63//24
f 67//24 68//24 64//24
f 68//45 72//45 73//45
f 68//45 73//45 69//45
f 68//49 65//49 64//49
f 68//49 69//49 65//49
f 69//47 66//47 65//47
f 69//47 70//47 66//47
f 70//22 63//22 66//22
f 70//22 67//22 63//22
f 73//37 77//37 78//37
f 73//37 78//37 74//37
f 73//43 70//43 69//43
f 73//43 74//43 70//43
f 74//18 67//18 70//18
f 74//18 71//18 67//18
f 75//14 72//14 71//14
f 75//14 76//14 72//14
f 76//31 80//31 81//31
f 76//31 81//31 77//31
f 76//39 73//39 72//39
f 76//39 77//39 73//39
f 78//12 71//12 74//12
f 78//12 75//12 71//12
f 78//4 79//4 75//4
f 78//4 82//4 79//4
f 79//6 76//6 75//6
f 79//6 80//6 76//6
f 81//29 78//29 77//29
f 81//29 82//29 78//29
f 83//32 80//32 79//32
f 83//32 84//32 80//32
f 83//40 87//40 88//40
f 83//40 88//40 84//40
f 84//13 88//13 89//13
f 84//13 89//13 85//13
f 84//5 81//5 80//5
f 84//5 85//5 81//5
f 85//3 82//3 81//3
f 85//3 86//3 82//3
f 86//30 79//30 82//30
f 86//30 83//30 79//30
f 89//11 86//11 85//11
f 89//11 90//11 86//11
f 89//17 93//17 94//17
f 89//17 94//17 90//17
f 90//38 83//38 86//38
f 90//38 87//38 83//38
f 91//46 88//46 87//46
f 91//46 92//46 88//46
f 92//19 89//19 88//19
f 92//19 93//19 89//19
f 92//23 34//23 93//23
f 92//23 36//23 34//23
f 94//44 87//44 90//44
f 94//44 91//44 87//44
f 94//48 28//48 91//48
f 94//48 32//48 28//48
