# Blender 5.1.2
# www.blender.org
mtllib heart.mtl
o heart
v -0.070000 0.295000 0.000000
v -0.070000 0.283612 -0.025500
v 0.150840 0.210000 0.015760
v -0.070000 0.210000 -0.051000
v 0.140009 0.167500 0.013648
v -0.070000 0.136388 -0.025500
v -0.070000 0.125000 0.000000
v 0.110420 0.136388 0.007880
v -0.045019 0.283612 -0.020630
v -0.026732 0.252500 -0.035732
v -0.020038 0.210000 -0.041260
v -0.026732 0.167500 -0.035732
v -0.045019 0.136388 -0.020630
v 0.070000 0.125000 0.000000
v -0.029580 0.283612 -0.007880
v 0.000009 0.252500 -0.013648
v 0.010840 0.210000 -0.015760
v 0.000009 0.167500 -0.013648
v -0.029580 0.136388 -0.007880
v 0.110420 0.136388 -0.007880
v 0.140009 0.167500 -0.013648
v -0.029580 0.283612 0.007880
v 0.000009 0.252500 0.013648
v 0.010840 0.210000 0.015760
v 0.000009 0.167500 0.013648
v -0.029580 0.136388 0.007880
v 0.150840 0.210000 -0.015760
v 0.140009 0.252500 -0.013648
v -0.045019 0.283612 0.020630
v -0.026732 0.252500 0.035732
v -0.020038 0.210000 0.041260
v -0.026732 0.167500 0.035732
v -0.045019 0.136388 0.020630
v 0.110420 0.283612 -0.007880
v 0.070000 0.295000 0.000000
v -0.070000 0.283612 0.025500
v -0.070000 0.252500 0.044167
v -0.070000 0.210000 0.051000
v -0.070000 0.167500 0.044167
v -0.070000 0.136388 0.025500
v 0.094981 0.283612 -0.020630
v -0.094981 0.283612 0.020630
v -0.113268 0.252500 0.035732
v -0.119962 0.210000 0.041260
v -0.113268 0.167500 0.035732
v -0.094981 0.136388 0.020630
v 0.113268 0.252500 -0.035732
v 0.119962 0.210000 -0.041260
v -0.110420 0.283612 0.007880
v -0.140009 0.252500 0.013648
v -0.150840 0.210000 0.015760
v -0.140009 0.167500 0.013648
v -0.110420 0.136388 0.007880
v 0.113268 0.167500 -0.035732
v 0.094981 0.136388 -0.020630
v -0.110420 0.283612 -0.007880
v -0.140009 0.252500 -0.013648
v -0.150840 0.210000 -0.015760
v -0.140009 0.167500 -0.013648
v -0.110420 0.136388 -0.007880
v -0.094981 0.283612 -0.020630
v -0.113268 0.252500 -0.035732
v -0.119962 0.210000 -0.041260
v -0.113268 0.167500 -0.035732
v -0.094981 0.136388 -0.020630
v 0.070000 0.136388 -0.025500
v 0.070000 0.210000 -0.051000
v -0.070000 0.252500 -0.044167
v -0.070000 0.167500 -0.044167
v 0.070000 0.283612 -0.025500
v 0.140009 0.252500 0.013648
v 0.110420 0.283612 0.007880
v 0.119962 0.210000 0.041260
v 0.113268 0.167500 0.035732
v 0.094981 0.136388 0.020630
v 0.113268 0.252500 0.035732
v 0.094981 0.283612 0.020630
v 0.070000 0.210000 0.051000
v 0.070000 0.167500 0.044167
v 0.070000 0.136388 0.025500
v 0.070000 0.252500 0.044167
v 0.070000 0.283612 0.025500
v 0.020038 0.210000 0.041260
v 0.026732 0.167500 0.035732
v 0.045019 0.136388 0.020630
v 0.026732 0.252500 0.035732
v 0.045019 0.283612 0.020630
v -0.010840 0.210000 0.015760
v -0.000009 0.167500 0.013648
v 0.029580 0.136388 0.007880
v -0.000009 0.252500 0.013648
v 0.029580 0.283612 0.007880
v -0.155000 0.210000 0.000000
v -0.010840 0.210000 -0.015760
v -0.000009 0.167500 -0.013648
v 0.029580 0.136388 -0.007880
v -0.000009 0.252500 -0.013648
v 0.029580 0.283612 -0.007880
v 0.000000 0.210000 0.054250
v 0.020038 0.210000 -0.041260
v 0.026732 0.167500 -0.035732
v 0.045019 0.136388 -0.020630
v 0.026732 0.252500 -0.035732
v 0.045019 0.283612 -0.020630
v 0.155000 0.210000 0.000000
v 0.070000 0.167500 -0.044167
v 0.000000 0.210000 -0.054250
v 0.000000 0.030000 0.000000
v 0.070000 0.252500 -0.044167
vn -0.0000 -0.3356 -0.9420
vn 0.2644 -0.7612 -0.5921
vn -0.0000 -0.7305 -0.6829
vn -0.0000 -0.0000 -1.0000
vn 0.4023 0.3749 -0.8352
vn 0.4388 -0.0000 -0.8986
vn -0.0000 0.7305 -0.6829
vn -0.0000 1.0000 -0.0000
vn 0.2644 0.7612 -0.5921
vn -0.0000 -1.0000 -0.0000
vn 0.4023 -0.3749 -0.8352
vn -0.0000 0.3356 -0.9420
vn 0.5078 0.8193 -0.2662
vn 0.5078 -0.8193 -0.2662
vn 0.8067 -0.4542 -0.3781
vn 0.8067 0.4542 -0.3781
vn 0.9110 -0.0000 -0.4123
vn 0.5078 -0.8193 0.2662
vn 0.8067 -0.4542 0.3781
vn 0.8067 0.4542 0.3781
vn 0.9110 -0.0000 0.4123
vn 0.5078 0.8193 0.2662
vn 0.2644 -0.7612 0.5921
vn 0.4388 -0.0000 0.8986
vn 0.4023 -0.3749 0.8352
vn 0.4023 0.3749 0.8352
vn 0.2644 0.7612 0.5921
vn -0.0000 -0.7305 0.6829
vn -0.0000 -0.0000 1.0000
vn -0.0000 -0.3356 0.9420
vn -0.0000 0.3356 0.9420
vn -0.0000 0.7305 0.6829
vn -0.4023 -0.3749 0.8352
vn -0.2644 0.7612 0.5921
vn -0.4023 0.3749 0.8352
vn -0.2644 -0.7612 0.5921
vn -0.4388 -0.0000 0.8986
vn -0.5078 0.8193 0.2662
vn -0.8067 0.4542 0.3781
vn -0.5078 -0.8193 0.2662
vn -0.9110 -0.0000 0.4123
vn -0.8067 -0.4542 0.3781
vn -0.5078 -0.8193 -0.2662
vn -0.9110 -0.0000 -0.4123
vn -0.5078 0.8193 -0.2662
vn -0.8067 -0.4542 -0.3781
vn -0.8067 0.4542 -0.3781
vn -0.4023 -0.3749 -0.8352
vn -0.2644 -0.7612 -0.5921
vn -0.4388 -0.0000 -0.8986
vn -0.2644 0.7612 -0.5921
vn -0.4023 0.3749 -0.8352
vn 0.3177 -0.2736 -0.9078
vn 0.3177 -0.2736 0.9078
vn -0.3177 -0.2736 0.9078
vn -0.3177 -0.2736 -0.9078
s 1
usemtl dg_heart
f 69//1 13//2 6//3
f 4//4 10//5 11//6
f 2//7 1//8 9//9
f 7//10 6//3 13//2
f 4//4 12//11 69//1
f 68//12 9//9 10//5
f 9//9 1//8 15//13
f 7//10 13//2 19//14
f 11//6 18//15 12//11
f 10//5 15//13 16//16
f 12//11 19//14 13//2
f 11//6 16//16 17//17
f 7//10 19//14 26//18
f 17//17 25//19 18//15
f 15//13 23//20 16//16
f 18//15 26//18 19//14
f 16//16 24//21 17//17
f 15//13 1//8 22//22
f 7//10 26//18 33//23
f 25//19 31//24 32//25
f 22//22 30//26 23//20
f 26//18 32//25 33//23
f 23//20 31//24 24//21
f 22//22 1//8 29//27
f 7//10 33//23 40//28
f 32//25 38//29 39//30
f 29//27 37//31 30//26
f 33//23 39//30 40//28
f 30//26 38//29 31//24
f 29//27 1//8 36//32
f 38//29 45//33 39//30
f 37//31 42//34 43//35
f 39//30 46//36 40//28
f 38//29 43//35 44//37
f 36//32 1//8 42//34
f 7//10 40//28 46//36
f 43//35 49//38 50//39
f 45//33 53//40 46//36
f 44//37 50//39 51//41
f 42//34 1//8 49//38
f 7//10 46//36 53//40
f 44//37 52//42 45//33
f 52//42 60//43 53//40
f 50//39 58//44 51//41
f 49//38 1//8 56//45
f 7//10 53//40 60//43
f 51//41 59//46 52//42
f 49//38 57//47 50//39
f 60//43 64//48 65//49
f 57//47 63//50 58//44
f 56//45 1//8 61//51
f 7//10 60//43 65//49
f 59//46 63//50 64//48
f 56//45 62//52 57//47
f 65//49 69//1 6//3
f 62//52 4//4 63//50
f 61//51 1//8 2//7
f 7//10 65//49 6//3
f 64//48 4//4 69//1
f 61//51 68//12 62//52
f 109//12 41//9 47//5
f 14//10 66//3 55//2
f 70//7 35//8 41//9
f 67//4 47//5 48//6
f 67//4 54//11 106//1
f 106//1 55//2 66//3
f 14//10 55//2 20//14
f 48//6 21//15 54//11
f 47//5 34//13 28//16
f 54//11 20//14 55//2
f 48//6 28//16 27//17
f 41//9 35//8 34//13
f 20//14 5//19 8//18
f 34//13 71//20 28//16
f 27//17 5//19 21//15
f 14//10 20//14 8//18
f 28//16 3//21 27//17
f 34//13 35//8 72//22
f 8//18 74//25 75//23
f 72//22 35//8 77//27
f 71//20 73//24 3//21
f 14//10 8//18 75//23
f 72//22 76//26 71//20
f 5//19 73//24 74//25
f 74//25 78//29 79//30
f 77//27 35//8 82//32
f 75//23 79//30 80//28
f 77//27 81//31 76//26
f 76//26 78//29 73//24
f 14//10 75//23 80//28
f 78//29 86//35 83//37
f 79//30 85//36 80//28
f 81//31 87//34 86//35
f 78//29 84//33 79//30
f 14//10 80//28 85//36
f 82//32 35//8 87//34
f 84//33 90//40 85//36
f 86//35 92//38 91//39
f 83//37 89//42 84//33
f 14//10 85//36 90//40
f 87//34 35//8 92//38
f 83//37 91//39 88//41
f 92//38 97//47 91//39
f 88//41 95//46 89//42
f 14//10 90//40 96//43
f 92//38 35//8 98//45
f 91//39 94//44 88//41
f 89//42 96//43 90//40
f 98//45 103//52 97//47
f 95//46 100//50 101//48
f 14//10 96//43 102//49
f 98//45 35//8 104//51
f 97//47 100//50 94//44
f 96//43 101//48 102//49
f 104//51 109//12 103//52
f 101//48 67//4 106//1
f 14//10 102//49 66//3
f 104//51 35//8 70//7
f 103//52 67//4 100//50
f 102//49 106//1 66//3
s 0
f 108//53 107//53 105//53
f 108//54 105//54 99//54
f 107//8 99//8 105//8
f 108//55 99//55 93//55
f 108//56 93//56 107//56
s 1
f 69//1 12//11 13//2
f 4//4 68//12 10//5
f 4//4 11//6 12//11
f 68//12 2//7 9//9
f 11//6 17//17 18//15
f 10//5 9//9 15//13
f 12//11 18//15 19//14
f 11//6 10//5 16//16
f 17//17 24//21 25//19
f 15//13 22//22 23//20
f 18//15 25//19 26//18
f 16//16 23//20 24//21
f 25//19 24//21 31//24
f 22//22 29//27 30//26
f 26//18 25//19 32//25
f 23//20 30//26 31//24
f 32//25 31//24 38//29
f 29//27 36//32 37//31
f 33//23 32//25 39//30
f 30//26 37//31 38//29
f 38//29 44//37 45//33
f 37//31 36//32 42//34
f 39//30 45//33 46//36
f 38//29 37//31 43//35
f 43//35 42//34 49//38
f 45//33 52//42 53//40
f 44//37 43//35 50//39
f 44//37 51//41 52//42
f 52//42 59//46 60//43
f 50//39 57//47 58//44
f 51//41 58//44 59//46
f 49//38 56//45 57//47
f 60//43 59//46 64//48
f 57//47 62//52 63//50
f 59//46 58//44 63//50
f 56//45 61//51 62//52
f 65//49 64//48 69//1
f 62//52 68//12 4//4
f 64//48 63//50 4//4
f 61//51 2//7 68//12
f 109//12 70//7 41//9
f 67//4 109//12 47//5
f 67//4 48//6 54//11
f 106//1 54//11 55//2
f 48//6 27//17 21//15
f 47//5 41//9 34//13
f 54//11 21//15 20//14
f 48//6 47//5 28//16
f 20//14 21//15 5//19
f 34//13 72//22 71//20
f 27//17 3//21 5//19
f 28//16 71//20 3//21
f 8//18 5//19 74//25
f 71//20 76//26 73//24
f 72//22 77//27 76//26
f 5//19 3//21 73//24
f 74//25 73//24 78//29
f 75//23 74//25 79//30
f 77//27 82//32 81//31
f 76//26 81//31 78//29
f 78//29 81//31 86//35
f 79//30 84//33 85//36
f 81//31 82//32 87//34
f 78//29 83//37 84//33
f 84//33 89//42 90//40
f 86//35 87//34 92//38
f 83//37 88//41 89//42
f 83//37 86//35 91//39
f 92//38 98//45 97//47
f 88//41 94//44 95//46
f 91//39 97//47 94//44
f 89//42 95//46 96//43
f 98//45 104//51 103//52
f 95//46 94//44 100//50
f 97//47 103//52 100//50
f 96//43 95//46 101//48
f 104//51 70//7 109//12
f 101//48 100//50 67//4
f 103//52 109//12 67//4
f 102//49 101//48 106//1
s 0
f 107//8 93//8 99//8
