# Blender 5.1.2
# www.blender.org
mtllib knight.mtl
o knight
v -0.150000 0.000000 0.070000
v -0.150000 0.240000 0.070000
v -0.150000 0.000000 -0.070000
v -0.150000 0.240000 -0.070000
v -0.030000 0.000000 0.070000
v -0.030000 0.240000 0.070000
v -0.030000 0.000000 -0.070000
v -0.030000 0.240000 -0.070000
v 0.030000 0.000000 0.070000
v 0.030000 0.240000 0.070000
v 0.030000 0.000000 -0.070000
v 0.030000 0.240000 -0.070000
v 0.150000 0.000000 0.070000
v 0.150000 0.240000 0.070000
v 0.150000 0.000000 -0.070000
v 0.150000 0.240000 -0.070000
v -0.180000 0.230000 0.110000
v -0.180000 0.570000 0.110000
v -0.180000 0.230000 -0.110000
v -0.180000 0.570000 -0.110000
v 0.180000 0.230000 0.110000
v 0.180000 0.570000 0.110000
v 0.180000 0.230000 -0.110000
v 0.180000 0.570000 -0.110000
v -0.190000 0.245000 0.120000
v -0.190000 0.295000 0.120000
v -0.190000 0.245000 -0.120000
v -0.190000 0.295000 -0.120000
v 0.190000 0.245000 0.120000
v 0.190000 0.295000 0.120000
v 0.190000 0.245000 -0.120000
v 0.190000 0.295000 -0.120000
v 0.000000 0.820000 0.000000
v 0.000000 0.801244 -0.070000
v 0.152169 0.720000 0.039443
v 0.000000 0.680000 -0.140000
v 0.131782 0.660000 0.032819
v 0.000000 0.558756 -0.070000
v 0.000000 0.540000 0.000000
v 0.076085 0.616077 0.014721
v 0.041145 0.801244 -0.056631
v 0.071265 0.750000 -0.098088
v 0.082290 0.680000 -0.113262
v 0.071265 0.610000 -0.098088
v 0.041145 0.558756 -0.056631
v 0.000000 0.600000 -0.010000
v -0.285000 0.390000 0.195000
v 0.066574 0.801244 -0.021631
v 0.115309 0.750000 -0.037466
v 0.133148 0.680000 -0.043262
v 0.115309 0.610000 -0.037466
v 0.066574 0.558756 -0.021631
v 0.076085 0.616077 -0.034721
v 0.131782 0.660000 -0.052819
v 0.066574 0.801244 0.021631
v 0.115309 0.750000 0.037466
v 0.133148 0.680000 0.043262
v 0.115309 0.610000 0.037466
v 0.066574 0.558756 0.021631
v 0.152169 0.720000 -0.059443
v 0.131782 0.780000 -0.052819
v 0.041145 0.801244 0.056631
v 0.071265 0.750000 0.098088
v 0.082290 0.680000 0.113262
v 0.071265 0.610000 0.098088
v 0.041145 0.558756 0.056631
v 0.076085 0.823923 -0.034721
v 0.000000 0.840000 -0.010000
v 0.000000 0.801244 0.070000
v 0.000000 0.750000 0.121244
v 0.000000 0.680000 0.140000
v 0.000000 0.610000 0.121244
v 0.000000 0.558756 0.070000
v -0.180000 0.550000 -0.060000
v 0.047023 0.823923 -0.074721
v -0.041145 0.801244 0.056631
v -0.071265 0.750000 0.098088
v -0.082290 0.680000 0.113262
v -0.071265 0.610000 0.098088
v -0.041145 0.558756 0.056631
v 0.081446 0.780000 -0.122101
v 0.094046 0.720000 -0.139443
v -0.066574 0.801244 0.021631
v -0.115309 0.750000 0.037466
v -0.133148 0.680000 0.043262
v -0.115309 0.610000 0.037466
v -0.066574 0.558756 0.021631
v 0.081446 0.660000 -0.122101
v 0.047023 0.616077 -0.074721
v -0.066574 0.801244 -0.021631
v -0.115309 0.750000 -0.037466
v -0.133148 0.680000 -0.043262
v -0.115309 0.610000 -0.037466
v -0.066574 0.558756 -0.021631
v -0.180000 0.290000 -0.060000
v -0.180000 0.550000 0.060000
v -0.041145 0.801244 -0.056631
v -0.071265 0.750000 -0.098088
v -0.082290 0.680000 -0.113262
v -0.071265 0.610000 -0.098088
v -0.041145 0.558756 -0.056631
v 0.000000 0.616077 -0.090000
v -0.180000 0.290000 0.060000
v 0.000000 0.720000 -0.170000
v -0.000000 0.750000 -0.121244
v -0.280000 0.550000 -0.060000
v -0.000000 0.610000 -0.121244
v 0.000000 0.823923 -0.090000
v -0.280000 0.290000 -0.060000
v 0.131782 0.780000 0.032819
v 0.076085 0.823923 0.014721
v -0.280000 0.550000 0.060000
v 0.094046 0.720000 0.119443
v 0.081446 0.660000 0.102101
v 0.047023 0.616077 0.054721
v -0.280000 0.290000 0.060000
v 0.081446 0.780000 0.102101
v 0.047023 0.823923 0.054721
v 0.280000 0.550000 -0.060000
v 0.000000 0.720000 0.150000
v 0.000000 0.660000 0.128564
v 0.000000 0.616077 0.070000
v 0.280000 0.290000 -0.060000
v 0.000000 0.780000 0.128564
v 0.000000 0.823923 0.070000
v 0.280000 0.550000 0.060000
v -0.094046 0.720000 0.119443
v -0.081446 0.660000 0.102101
v -0.047023 0.616077 0.054721
v 0.280000 0.290000 0.060000
v -0.081446 0.780000 0.102101
v -0.047023 0.823923 0.054721
v 0.180000 0.550000 -0.060000
v -0.152169 0.720000 0.039443
v -0.131782 0.660000 0.032819
v -0.076085 0.616077 0.014721
v 0.180000 0.290000 -0.060000
v -0.131782 0.780000 0.032819
v -0.076085 0.823923 0.014721
v 0.180000 0.550000 0.060000
v -0.152169 0.720000 -0.059443
v -0.131782 0.660000 -0.052819
v -0.076085 0.616077 -0.034721
v 0.180000 0.290000 0.060000
v -0.131782 0.780000 -0.052819
v -0.076085 0.823923 -0.034721
v 0.100000 0.675000 0.100000
v -0.094046 0.720000 -0.139443
v -0.081446 0.660000 -0.122101
v -0.047023 0.616077 -0.074721
v 0.100000 0.645000 0.100000
v -0.081446 0.780000 -0.122101
v -0.047023 0.823923 -0.074721
v 0.100000 0.675000 0.140000
v 0.100000 0.645000 0.140000
v -0.000000 0.660000 -0.148564
v -0.100000 0.675000 0.100000
v -0.100000 0.645000 0.100000
v -0.000000 0.780000 -0.148564
v -0.100000 0.675000 0.140000
v -0.100000 0.645000 0.140000
v -0.285000 0.850000 0.195000
v -0.285000 0.390000 0.165000
v -0.285000 0.850000 0.165000
v -0.235000 0.390000 0.195000
v -0.235000 0.850000 0.195000
v -0.235000 0.390000 0.165000
v -0.235000 0.850000 0.165000
v -0.340000 0.350000 0.205000
v -0.340000 0.390000 0.205000
v -0.340000 0.350000 0.155000
v -0.340000 0.390000 0.155000
v -0.180000 0.350000 0.205000
v -0.180000 0.390000 0.205000
v -0.180000 0.350000 0.155000
v -0.180000 0.390000 0.155000
v -0.280000 0.260000 0.200000
v -0.280000 0.360000 0.200000
v -0.280000 0.260000 0.160000
v -0.280000 0.360000 0.160000
v -0.240000 0.260000 0.200000
v -0.240000 0.360000 0.200000
v -0.240000 0.260000 0.160000
v -0.240000 0.360000 0.160000
v 0.340000 0.443301 0.005000
v 0.340000 0.450000 0.030000
v 0.290000 0.400000 -0.140000
v 0.330000 0.400000 -0.140000
v 0.290000 0.300077 -0.107533
v 0.330000 0.300077 -0.107533
v 0.290000 0.238320 -0.022533
v 0.330000 0.238320 -0.022533
v 0.290000 0.238320 0.082533
v 0.330000 0.238320 0.082533
v 0.290000 0.300077 0.167533
v 0.330000 0.300077 0.167533
v 0.290000 0.400000 0.200000
v 0.330000 0.400000 0.200000
v 0.290000 0.499923 0.167533
v 0.330000 0.499923 0.167533
v 0.290000 0.561680 0.082533
v 0.330000 0.561680 0.082533
v 0.290000 0.561680 -0.022533
v 0.330000 0.561680 -0.022533
v 0.290000 0.499923 -0.107533
v 0.330000 0.499923 -0.107533
v 0.340000 0.400000 -0.020000
v 0.340000 0.356699 0.005000
v 0.340000 0.350000 0.030000
v 0.354695 0.443301 0.009775
v 0.365452 0.425000 -0.005031
v 0.369389 0.400000 -0.010451
v 0.365452 0.375000 -0.005031
v 0.354695 0.356699 0.009775
v 0.363776 0.443301 0.022275
v 0.381182 0.425000 0.016619
v 0.387553 0.400000 0.014549
v 0.381182 0.375000 0.016619
v 0.363776 0.356699 0.022275
v 0.363776 0.443301 0.037725
v 0.381182 0.425000 0.043381
v 0.387553 0.400000 0.045451
v 0.381182 0.375000 0.043381
v 0.363776 0.356699 0.037725
v 0.354695 0.443301 0.050225
v 0.365452 0.425000 0.065031
v 0.369389 0.400000 0.070451
v 0.365452 0.375000 0.065031
v 0.354695 0.356699 0.050225
v 0.340000 0.443301 0.055000
v 0.340000 0.425000 0.073301
v 0.340000 0.400000 0.080000
v 0.340000 0.375000 0.073301
v 0.340000 0.356699 0.055000
v 0.325305 0.443301 0.050225
v 0.314548 0.425000 0.065031
v 0.310611 0.400000 0.070451
v 0.314548 0.375000 0.065031
v 0.325305 0.356699 0.050225
v 0.316224 0.443301 0.037725
v 0.298818 0.425000 0.043381
v 0.292447 0.400000 0.045451
v 0.298818 0.375000 0.043381
v 0.316224 0.356699 0.037725
v 0.316224 0.443301 0.022275
v 0.298818 0.425000 0.016619
v 0.292447 0.400000 0.014549
v 0.298818 0.375000 0.016619
v 0.316224 0.356699 0.022275
v 0.325305 0.443301 0.009775
v 0.314548 0.425000 -0.005031
v 0.310611 0.400000 -0.010451
v 0.314548 0.375000 -0.005031
v 0.325305 0.356699 0.009775
v 0.340000 0.425000 -0.013301
v 0.340000 0.375000 -0.013301
vn -1.0000 -0.0000 -0.0000
vn -0.0000 -0.0000 -1.0000
vn 1.0000 -0.0000 -0.0000
vn -0.0000 -0.0000 1.0000
vn -0.0000 -1.0000 -0.0000
vn -0.0000 1.0000 -0.0000
vn 0.2239 -0.6892 -0.6892
vn 0.2994 0.2469 -0.9216
vn 0.0838 0.9625 -0.2579
vn 0.0838 -0.9625 -0.2579
vn 0.2994 -0.2469 -0.9216
vn 0.2239 0.6892 -0.6892
vn 0.2194 0.9625 -0.1594
vn 0.2194 -0.9625 -0.1594
vn 0.7840 -0.2469 -0.5696
vn 0.5862 0.6892 -0.4259
vn 0.5862 -0.6892 -0.4259
vn 0.7840 0.2469 -0.5696
vn 0.2712 -0.9625 -0.0000
vn 0.9690 -0.2469 -0.0000
vn 0.7246 0.6892 -0.0000
vn 0.7246 -0.6892 -0.0000
vn 0.9690 0.2469 -0.0000
vn 0.2712 0.9625 -0.0000
vn 0.2194 -0.9625 0.1594
vn 0.7840 -0.2469 0.5696
vn 0.5862 0.6892 0.4259
vn 0.5862 -0.6892 0.4259
vn 0.7840 0.2469 0.5696
vn 0.2194 0.9625 0.1594
vn 0.0838 -0.9625 0.2579
vn 0.2994 -0.2469 0.9216
vn 0.2239 0.6892 0.6892
vn 0.2239 -0.6892 0.6892
vn 0.2994 0.2469 0.9216
vn 0.0838 0.9625 0.2579
vn -0.2994 -0.2469 0.9216
vn -0.2239 0.6892 0.6892
vn -0.2239 -0.6892 0.6892
vn -0.2994 0.2469 0.9216
vn -0.0838 0.9625 0.2579
vn -0.0838 -0.9625 0.2579
vn -0.5862 0.6892 0.4259
vn -0.5862 -0.6892 0.4259
vn -0.7840 0.2469 0.5696
vn -0.2194 0.9625 0.1594
vn -0.2194 -0.9625 0.1594
vn -0.7840 -0.2469 0.5696
vn -0.7246 -0.6892 -0.0000
vn -0.9690 0.2469 -0.0000
vn -0.2712 0.9625 -0.0000
vn -0.2712 -0.9625 -0.0000
vn -0.9690 -0.2469 -0.0000
vn -0.7246 0.6892 -0.0000
vn -0.5862 -0.6892 -0.4259
vn -0.7840 0.2469 -0.5696
vn -0.2194 0.9625 -0.1594
vn -0.2194 -0.9625 -0.1594
vn -0.7840 -0.2469 -0.5696
vn -0.5862 0.6892 -0.4259
vn -0.2239 -0.6892 -0.6892
vn -0.2994 0.2469 -0.9216
vn -0.0838 0.9625 -0.2579
vn -0.0838 -0.9625 -0.2579
vn -0.2994 -0.2469 -0.9216
vn -0.2239 0.6892 -0.6892
vn 0.1913 0.7852 -0.5889
vn 0.0639 -0.9784 -0.1966
vn 0.0639 0.9784 -0.1966
vn 0.2926 0.3217 -0.9005
vn 0.2926 -0.3217 -0.9005
vn 0.1913 -0.7852 -0.5889
vn 0.1673 -0.9784 -0.1215
vn 0.7660 -0.3217 -0.5565
vn 0.5010 0.7852 -0.3640
vn 0.5010 -0.7852 -0.3640
vn 0.7660 0.3217 -0.5565
vn 0.1673 0.9784 -0.1215
vn 0.6192 -0.7852 -0.0000
vn 0.6192 0.7852 -0.0000
vn 0.9468 -0.3217 -0.0000
vn 0.2067 -0.9784 -0.0000
vn 0.9468 0.3217 -0.0000
vn 0.2067 0.9784 -0.0000
vn 0.5010 -0.7852 0.3640
vn 0.1673 0.9784 0.1215
vn 0.7660 0.3217 0.5565
vn 0.1673 -0.9784 0.1215
vn 0.5010 0.7852 0.3640
vn 0.7660 -0.3217 0.5565
vn 0.2926 -0.3217 0.9005
vn 0.0639 0.9784 0.1966
vn 0.1913 -0.7852 0.5889
vn 0.1913 0.7852 0.5889
vn 0.2926 0.3217 0.9005
vn 0.0639 -0.9784 0.1966
vn -0.2926 0.3217 0.9005
vn -0.1913 -0.7852 0.5889
vn -0.1913 0.7852 0.5889
vn -0.2926 -0.3217 0.9005
vn -0.0639 -0.9784 0.1966
vn -0.0639 0.9784 0.1966
vn -0.5010 -0.7852 0.3640
vn -0.5010 0.7852 0.3640
vn -0.7660 -0.3217 0.5565
vn -0.1673 -0.9784 0.1215
vn -0.1673 0.9784 0.1215
vn -0.7660 0.3217 0.5565
vn -0.6192 0.7852 -0.0000
vn -0.9468 -0.3217 -0.0000
vn -0.2067 -0.9784 -0.0000
vn -0.2067 0.9784 -0.0000
vn -0.9468 0.3217 -0.0000
vn -0.6192 -0.7852 -0.0000
vn -0.5010 0.7852 -0.3640
vn -0.7660 -0.3217 -0.5565
vn -0.1673 -0.9784 -0.1215
vn -0.1673 0.9784 -0.1215
vn -0.7660 0.3217 -0.5565
vn -0.5010 -0.7852 -0.3640
vn -0.1913 0.7852 -0.5889
vn -0.2926 -0.3217 -0.9005
vn -0.0639 -0.9784 -0.1966
vn -0.0639 0.9784 -0.1966
vn -0.2926 0.3217 -0.9005
vn -0.1913 -0.7852 -0.5889
vn -0.0000 -0.3090 -0.9511
vn -0.0000 -0.8090 -0.5878
vn -0.0000 -0.8090 0.5878
vn -0.0000 -0.3090 0.9511
vn -0.0000 0.3090 0.9511
vn -0.0000 0.8090 0.5878
vn -0.0000 0.8090 -0.5878
vn -0.0000 0.3090 -0.9511
vn 0.1914 0.7852 -0.5889
vn 0.1914 -0.7852 0.5889
vn -0.1914 0.7852 -0.5889
s 0
usemtl dg_steel
f 2//1 3//1 1//1
f 4//2 7//2 3//2
f 8//3 5//3 7//3
f 6//4 1//4 5//4
f 7//5 1//5 3//5
f 4//6 6//6 8//6
f 10//1 11//1 9//1
f 12//2 15//2 11//2
f 16//3 13//3 15//3
f 14//4 9//4 13//4
f 15//5 9//5 11//5
f 12//6 14//6 16//6
f 159//67 75//67 81//67
f 46//68 102//68 89//68
f 108//69 68//69 75//69
f 159//70 82//70 104//70
f 104//71 88//71 156//71
f 156//72 89//72 102//72
f 46//73 89//73 53//73
f 82//74 54//74 88//74
f 75//75 61//75 81//75
f 88//76 53//76 89//76
f 81//77 60//77 82//77
f 75//78 68//78 67//78
f 54//79 40//79 53//79
f 67//80 110//80 61//80
f 60//81 37//81 54//81
f 46//82 53//82 40//82
f 61//83 35//83 60//83
f 67//84 68//84 111//84
f 37//85 115//85 40//85
f 111//86 68//86 118//86
f 110//87 113//87 35//87
f 46//88 40//88 115//88
f 111//89 117//89 110//89
f 35//90 114//90 37//90
f 114//91 120//91 121//91
f 118//92 68//92 125//92
f 114//93 122//93 115//93
f 118//94 124//94 117//94
f 117//95 120//95 113//95
f 46//96 115//96 122//96
f 124//97 127//97 120//97
f 121//98 129//98 122//98
f 124//99 132//99 131//99
f 120//100 128//100 121//100
f 46//101 122//101 129//101
f 125//102 68//102 132//102
f 128//103 136//103 129//103
f 131//104 139//104 138//104
f 128//105 134//105 135//105
f 46//106 129//106 136//106
f 132//107 68//107 139//107
f 131//108 134//108 127//108
f 138//109 146//109 145//109
f 135//110 141//110 142//110
f 46//111 136//111 143//111
f 139//112 68//112 146//112
f 138//113 141//113 134//113
f 135//114 143//114 136//114
f 146//115 152//115 145//115
f 142//116 148//116 149//116
f 46//117 143//117 150//117
f 146//118 68//118 153//118
f 145//119 148//119 141//119
f 142//120 150//120 143//120
f 153//121 159//121 152//121
f 148//122 156//122 149//122
f 46//123 150//123 102//123
f 153//124 68//124 108//124
f 152//125 104//125 148//125
f 150//126 156//126 102//126
f 160//1 158//1 161//1
f 157//2 151//2 158//2
f 147//3 155//3 151//3
f 154//4 161//4 155//4
f 151//5 161//5 158//5
f 157//6 154//6 147//6
f 162//1 163//1 47//1
f 164//2 167//2 163//2
f 168//3 165//3 167//3
f 166//4 47//4 165//4
f 167//5 47//5 163//5
f 164//6 166//6 168//6
f 2//1 4//1 3//1
f 4//2 8//2 7//2
f 8//3 6//3 5//3
f 6//4 2//4 1//4
f 7//5 5//5 1//5
f 4//6 2//6 6//6
f 10//1 12//1 11//1
f 12//2 16//2 15//2
f 16//3 14//3 13//3
f 14//4 10//4 9//4
f 15//5 13//5 9//5
f 12//6 10//6 14//6
f 159//135 108//135 75//135
f 159//70 81//70 82//70
f 104//71 82//71 88//71
f 156//72 88//72 89//72
f 82//74 60//74 54//74
f 75//75 67//75 61//75
f 88//76 54//76 53//76
f 81//77 61//77 60//77
f 54//79 37//79 40//79
f 67//80 111//80 110//80
f 60//81 35//81 37//81
f 61//83 110//83 35//83
f 37//85 114//85 115//85
f 110//87 117//87 113//87
f 111//89 118//89 117//89
f 35//90 113//90 114//90
f 114//91 113//91 120//91
f 114//136 121//136 122//136
f 118//94 125//94 124//94
f 117//95 124//95 120//95
f 124//97 131//97 127//97
f 121//98 128//98 129//98
f 124//99 125//99 132//99
f 120//100 127//100 128//100
f 128//103 135//103 136//103
f 131//104 132//104 139//104
f 128//105 127//105 134//105
f 131//108 138//108 134//108
f 138//109 139//109 146//109
f 135//110 134//110 141//110
f 138//113 145//113 141//113
f 135//114 142//114 143//114
f 146//115 153//115 152//115
f 142//116 141//116 148//116
f 145//119 152//119 148//119
f 142//120 149//120 150//120
f 153//137 108//137 159//137
f 148//122 104//122 156//122
f 152//125 159//125 104//125
f 150//126 149//126 156//126
f 160//1 157//1 158//1
f 157//2 147//2 151//2
f 147//3 154//3 155//3
f 154//4 160//4 161//4
f 151//5 155//5 161//5
f 157//6 160//6 154//6
f 162//1 164//1 163//1
f 164//2 168//2 167//2
f 168//3 166//3 165//3
f 166//4 162//4 47//4
f 167//5 165//5 47//5
f 164//6 162//6 166//6
usemtl dg_tunic
f 18//1 19//1 17//1
f 20//2 23//2 19//2
f 24//3 21//3 23//3
f 22//4 17//4 21//4
f 23//5 17//5 19//5
f 20//6 22//6 24//6
f 140//1 137//1 144//1
f 133//2 123//2 137//2
f 119//3 130//3 123//3
f 126//4 144//4 130//4
f 123//5 144//5 137//5
f 133//6 126//6 119//6
f 112//1 109//1 116//1
f 106//2 95//2 109//2
f 74//3 103//3 95//3
f 96//4 116//4 103//4
f 95//5 116//5 109//5
f 106//6 96//6 74//6
f 18//1 20//1 19//1
f 20//2 24//2 23//2
f 24//3 22//3 21//3
f 22//4 18//4 17//4
f 23//5 21//5 17//5
f 20//6 18//6 22//6
f 140//1 133//1 137//1
f 133//2 119//2 123//2
f 119//3 126//3 130//3
f 126//4 140//4 144//4
f 123//5 130//5 144//5
f 133//6 140//6 126//6
f 112//1 106//1 109//1
f 106//2 74//2 95//2
f 74//3 96//3 103//3
f 96//4 112//4 116//4
f 95//5 103//5 116//5
f 106//6 112//6 96//6
usemtl dg_gold
f 26//1 27//1 25//1
f 28//2 31//2 27//2
f 32//3 29//3 31//3
f 30//4 25//4 29//4
f 31//5 25//5 27//5
f 28//6 30//6 32//6
f 170//1 171//1 169//1
f 172//2 175//2 171//2
f 176//3 173//3 175//3
f 174//4 169//4 173//4
f 175//5 169//5 171//5
f 172//6 174//6 176//6
f 178//1 179//1 177//1
f 180//2 183//2 179//2
f 184//3 181//3 183//3
f 182//4 177//4 181//4
f 183//5 177//5 179//5
f 180//6 182//6 184//6
f 217//20 223//20 218//20
f 210//16 216//16 211//16
f 220//30 186//30 225//30
f 211//18 217//18 212//18
f 215//21 221//21 216//21
f 210//13 186//13 215//13
f 218//22 224//22 219//22
f 255//8 212//8 207//8
f 215//24 186//24 220//24
f 256//11 212//11 213//11
f 216//23 222//23 217//23
f 185//9 186//9 210//9
f 209//14 214//14 219//14
f 256//7 214//7 208//7
f 213//15 217//15 218//15
f 255//12 210//12 211//12
f 209//10 208//10 214//10
f 209//19 219//19 224//19
f 213//17 219//17 214//17
f 223//28 229//28 224//28
f 221//29 227//29 222//29
f 221//27 225//27 226//27
f 209//25 224//25 229//25
f 223//26 227//26 228//26
f 228//34 234//34 229//34
f 226//35 232//35 227//35
f 226//33 230//33 231//33
f 209//31 229//31 234//31
f 227//32 233//32 228//32
f 225//36 186//36 230//36
f 231//40 237//40 232//40
f 231//38 235//38 236//38
f 209//42 234//42 239//42
f 232//37 238//37 233//37
f 230//41 186//41 235//41
f 233//39 239//39 234//39
f 235//43 241//43 236//43
f 209//47 239//47 244//47
f 237//48 243//48 238//48
f 235//46 186//46 240//46
f 238//44 244//44 239//44
f 236//45 242//45 237//45
f 240//54 246//54 241//54
f 209//52 244//52 249//52
f 242//53 248//53 243//53
f 240//51 186//51 245//51
f 243//49 249//49 244//49
f 241//50 247//50 242//50
f 245//60 251//60 246//60
f 209//58 249//58 254//58
f 248//59 252//59 253//59
f 245//57 186//57 250//57
f 249//55 253//55 254//55
f 246//56 252//56 247//56
f 209//64 254//64 208//64
f 252//65 256//65 253//65
f 250//63 186//63 185//63
f 254//61 256//61 208//61
f 252//62 255//62 207//62
f 250//66 255//66 251//66
f 26//1 28//1 27//1
f 28//2 32//2 31//2
f 32//3 30//3 29//3
f 30//4 26//4 25//4
f 31//5 29//5 25//5
f 28//6 26//6 30//6
f 170//1 172//1 171//1
f 172//2 176//2 175//2
f 176//3 174//3 173//3
f 174//4 170//4 169//4
f 175//5 173//5 169//5
f 172//6 170//6 174//6
f 178//1 180//1 179//1
f 180//2 184//2 183//2
f 184//3 182//3 181//3
f 182//4 178//4 177//4
f 183//5 181//5 177//5
f 180//6 178//6 182//6
f 217//20 222//20 223//20
f 210//16 215//16 216//16
f 211//18 216//18 217//18
f 215//21 220//21 221//21
f 218//22 223//22 224//22
f 255//8 211//8 212//8
f 256//11 207//11 212//11
f 216//23 221//23 222//23
f 256//7 213//7 214//7
f 213//15 212//15 217//15
f 255//12 185//12 210//12
f 213//17 218//17 219//17
f 223//28 228//28 229//28
f 221//29 226//29 227//29
f 221//27 220//27 225//27
f 223//26 222//26 227//26
f 228//34 233//34 234//34
f 226//35 231//35 232//35
f 226//33 225//33 230//33
f 227//32 232//32 233//32
f 231//40 236//40 237//40
f 231//38 230//38 235//38
f 232//37 237//37 238//37
f 233//39 238//39 239//39
f 235//43 240//43 241//43
f 237//48 242//48 243//48
f 238//44 243//44 244//44
f 236//45 241//45 242//45
f 240//54 245//54 246//54
f 242//53 247//53 248//53
f 243//49 248//49 249//49
f 241//50 246//50 247//50
f 245//60 250//60 251//60
f 248//59 247//59 252//59
f 249//55 248//55 253//55
f 246//56 251//56 252//56
f 252//65 207//65 256//65
f 254//61 253//61 256//61
f 252//62 251//62 255//62
f 250//66 185//66 255//66
usemtl dg_skin
f 38//7 44//7 45//7
f 105//8 43//8 36//8
f 34//9 33//9 41//9
f 39//10 38//10 45//10
f 36//11 44//11 107//11
f 34//12 42//12 105//12
f 41//13 33//13 48//13
f 39//14 45//14 52//14
f 43//15 51//15 44//15
f 41//16 49//16 42//16
f 44//17 52//17 45//17
f 42//18 50//18 43//18
f 39//19 52//19 59//19
f 50//20 58//20 51//20
f 48//21 56//21 49//21
f 51//22 59//22 52//22
f 49//23 57//23 50//23
f 48//24 33//24 55//24
f 39//25 59//25 66//25
f 57//26 65//26 58//26
f 55//27 63//27 56//27
f 58//28 66//28 59//28
f 56//29 64//29 57//29
f 55//30 33//30 62//30
f 39//31 66//31 73//31
f 64//32 72//32 65//32
f 62//33 70//33 63//33
f 66//34 72//34 73//34
f 63//35 71//35 64//35
f 62//36 33//36 69//36
f 72//37 78//37 79//37
f 69//38 77//38 70//38
f 72//39 80//39 73//39
f 70//40 78//40 71//40
f 69//41 33//41 76//41
f 39//42 73//42 80//42
f 76//43 84//43 77//43
f 79//44 87//44 80//44
f 77//45 85//45 78//45
f 76//46 33//46 83//46
f 39//47 80//47 87//47
f 78//48 86//48 79//48
f 86//49 94//49 87//49
f 84//50 92//50 85//50
f 83//51 33//51 90//51
f 39//52 87//52 94//52
f 85//53 93//53 86//53
f 83//54 91//54 84//54
f 93//55 101//55 94//55
f 91//56 99//56 92//56
f 90//57 33//57 97//57
f 39//58 94//58 101//58
f 92//59 100//59 93//59
f 90//60 98//60 91//60
f 100//61 38//61 101//61
f 98//62 36//62 99//62
f 97//63 33//63 34//63
f 39//64 101//64 38//64
f 99//65 107//65 100//65
f 97//66 105//66 98//66
f 38//7 107//7 44//7
f 105//8 42//8 43//8
f 36//11 43//11 44//11
f 34//12 41//12 42//12
f 43//15 50//15 51//15
f 41//16 48//16 49//16
f 44//17 51//17 52//17
f 42//18 49//18 50//18
f 50//20 57//20 58//20
f 48//21 55//21 56//21
f 51//22 58//22 59//22
f 49//23 56//23 57//23
f 57//26 64//26 65//26
f 55//27 62//27 63//27
f 58//28 65//28 66//28
f 56//29 63//29 64//29
f 64//32 71//32 72//32
f 62//33 69//33 70//33
f 66//34 65//34 72//34
f 63//35 70//35 71//35
f 72//37 71//37 78//37
f 69//38 76//38 77//38
f 72//39 79//39 80//39
f 70//40 77//40 78//40
f 76//43 83//43 84//43
f 79//44 86//44 87//44
f 77//45 84//45 85//45
f 78//48 85//48 86//48
f 86//49 93//49 94//49
f 84//50 91//50 92//50
f 85//53 92//53 93//53
f 83//54 90//54 91//54
f 93//55 100//55 101//55
f 91//56 98//56 99//56
f 92//59 99//59 100//59
f 90//60 97//60 98//60
f 100//61 107//61 38//61
f 98//62 105//62 36//62
f 99//65 36//65 107//65
f 97//66 34//66 105//66
usemtl dg_shield
f 188//127 189//127 187//127
f 190//128 191//128 189//128
f 192//5 193//5 191//5
f 194//129 195//129 193//129
f 196//130 197//130 195//130
f 197//131 200//131 199//131
f 200//132 201//132 199//132
f 202//6 203//6 201//6
f 204//3 196//3 192//3
f 204//133 205//133 203//133
f 206//134 187//134 205//134
f 193//1 201//1 205//1
f 188//127 190//127 189//127
f 190//128 192//128 191//128
f 192//5 194//5 193//5
f 194//129 196//129 195//129
f 196//130 198//130 197//130
f 197//131 198//131 200//131
f 200//132 202//132 201//132
f 202//6 204//6 203//6
f 192//3 190//3 188//3
f 188//3 206//3 204//3
f 204//3 202//3 200//3
f 200//3 198//3 196//3
f 196//3 194//3 192//3
f 192//3 188//3 204//3
f 204//3 200//3 196//3
f 204//133 206//133 205//133
f 206//134 188//134 187//134
f 205//1 187//1 189//1
f 189//1 191//1 193//1
f 193//1 195//1 197//1
f 197//1 199//1 201//1
f 201//1 203//1 205//1
f 205//1 189//1 193//1
f 193//1 197//1 201//1
