# Blender 5.1.2
# www.blender.org
mtllib slash.mtl
o slash
v -0.467654 0.300000 0.620000
v -0.433013 0.320000 0.600000
v -0.398372 0.300000 0.580000
v -0.433013 0.280000 0.600000
v -0.401298 0.300000 0.711331
v -0.371572 0.320000 0.684565
v -0.341847 0.300000 0.657800
v -0.371572 0.280000 0.684565
v -0.317404 0.300000 0.786869
v -0.293893 0.320000 0.754508
v -0.270381 0.300000 0.722148
v -0.293893 0.280000 0.754508
v -0.219638 0.300000 0.843315
v -0.203368 0.320000 0.806773
v -0.187099 0.300000 0.770231
v -0.203368 0.280000 0.806773
v -0.112272 0.300000 0.878200
v -0.103956 0.320000 0.839074
v -0.095639 0.300000 0.799948
v -0.103956 0.280000 0.839074
v -0.000000 0.300000 0.890000
v -0.000000 0.320000 0.850000
v -0.000000 0.300000 0.810000
v -0.000000 0.280000 0.850000
v 0.112272 0.300000 0.878200
v 0.103956 0.320000 0.839074
v 0.095639 0.300000 0.799948
v 0.103956 0.280000 0.839074
v 0.219638 0.300000 0.843315
v 0.203368 0.320000 0.806773
v 0.187099 0.300000 0.770231
v 0.203368 0.280000 0.806773
v 0.317404 0.300000 0.786869
v 0.293893 0.320000 0.754508
v 0.270381 0.300000 0.722148
v 0.293893 0.280000 0.754508
v 0.401298 0.300000 0.711331
v 0.371572 0.320000 0.684565
v 0.341847 0.300000 0.657800
v 0.371572 0.280000 0.684565
v 0.467654 0.300000 0.620000
v 0.433013 0.320000 0.600000
v 0.398372 0.300000 0.580000
v 0.433013 0.280000 0.600000
vn -0.0000 -0.0000 -1.0000
vn -0.0000 -0.0000 1.0000
vn -0.0000 -0.9996 0.0298
vn -0.0000 0.9996 0.0298
vn -0.0062 -0.9996 0.0291
vn -0.0062 0.9996 0.0291
vn -0.0121 -0.9996 0.0272
vn -0.0121 0.9996 0.0272
vn -0.0175 -0.9996 0.0241
vn -0.0175 0.9996 0.0241
vn -0.0221 -0.9996 0.0199
vn -0.0221 0.9996 0.0199
vn -0.2079 -0.0000 -0.9781
vn -0.2079 -0.0000 0.9781
vn -0.3291 -0.7861 -0.5232
vn -0.3291 0.7861 -0.5232
vn -0.4054 -0.0000 -0.9141
vn -0.4067 -0.0000 -0.9135
vn -0.4067 -0.0000 0.9135
vn -0.5878 -0.0000 -0.8090
vn -0.5878 -0.0000 0.8090
vn -0.7431 -0.0000 -0.6691
vn -0.7431 -0.0000 0.6691
vn -0.9999 -0.0000 -0.0150
vn 0.0062 -0.9996 0.0291
vn 0.0062 0.9996 0.0291
vn 0.0121 -0.9996 0.0272
vn 0.0121 0.9996 0.0272
vn 0.0175 -0.9996 0.0241
vn 0.0175 0.9996 0.0241
vn 0.0221 -0.9996 0.0199
vn 0.0221 0.9996 0.0199
vn 0.2079 -0.0000 -0.9781
vn 0.2079 -0.0000 0.9781
vn 0.3291 -0.7861 -0.5232
vn 0.3291 0.7861 -0.5232
vn 0.4054 -0.0000 -0.9141
vn 0.4067 -0.0000 -0.9135
vn 0.4067 -0.0000 0.9135
vn 0.5878 -0.0000 -0.8090
vn 0.5878 -0.0000 0.8090
vn 0.7431 -0.0000 -0.6691
vn 0.7431 -0.0000 0.6691
vn 0.9999 -0.0000 -0.0150
s 1
usemtl dg_slash
f 10//10 11//40 7//42
f 10//10 7//42 6//12
f 11//40 12//9 8//11
f 11//40 8//11 7//42
f 12//9 5//23 8//11
f 12//9 9//21 5//23
f 13//19 10//10 9//21
f 13//19 14//8 10//10
f 14//8 11//40 10//10
f 14//8 15//38 11//40
f 15//38 12//9 11//40
f 15//38 16//7 12//9
f 15//38 19//33 20//5
f 15//38 20//5 16//7
f 16//7 13//19 9//21
f 16//7 17//14 13//19
f 16//7 20//5 17//14
f 16//7 9//21 12//9
f 17//14 14//8 13//19
f 17//14 18//6 14//8
f 18//6 15//38 14//8
f 18//6 19//33 15//38
f 18//6 22//4 23//1
f 18//6 23//1 19//33
f 19//33 23//1 24//3
f 19//33 24//3 20//5
f 2//16 6//12 7//42
f 2//16 7//42 3//37
f 21//2 18//6 17//14
f 21//2 22//4 18//6
f 24//3 17//14 20//5
f 24//3 21//2 17//14
f 24//3 25//34 21//2
f 24//3 28//25 25//34
f 25//34 22//4 21//2
f 25//34 26//26 22//4
f 26//26 23//1 22//4
f 26//26 27//13 23//1
f 27//13 24//3 23//1
f 27//13 28//25 24//3
f 27//13 31//18 32//27
f 27//13 32//27 28//25
f 28//25 29//39 25//34
f 28//25 32//27 29//39
f 29//39 26//26 25//34
f 29//39 30//28 26//26
f 30//28 27//13 26//26
f 30//28 31//18 27//13
f 30//28 34//30 35//20
f 30//28 35//20 31//18
f 33//41 30//28 29//39
f 33//41 34//30 30//28
f 35//20 32//27 31//18
f 35//20 36//29 32//27
f 36//29 29//39 32//27
f 36//29 33//41 29//39
f 37//43 34//30 33//41
f 37//43 38//32 34//30
f 37//43 41//44 42//36
f 37//43 42//36 38//32
f 38//32 35//20 34//30
f 38//32 39//22 35//20
f 39//22 36//29 35//20
f 39//22 40//31 36//29
f 4//15 1//24 2//16
f 4//15 2//16 3//37
f 4//15 5//23 1//24
f 4//15 8//11 5//23
f 40//31 33//41 36//29
f 40//31 37//43 33//41
f 42//36 39//22 38//32
f 42//36 43//17 39//22
f 43//17 40//31 39//22
f 43//17 44//35 40//31
f 44//35 37//43 40//31
f 44//35 41//44 37//43
f 44//35 42//36 41//44
f 44//35 43//17 42//36
f 5//23 2//16 1//24
f 5//23 6//12 2//16
f 7//42 4//15 3//37
f 7//42 8//11 4//15
f 9//21 10//10 6//12
f 9//21 6//12 5//23
