# Blender 5.1.2
# www.blender.org
mtllib slime.mtl
o slime
v 0.000000 0.417600 0.000000
v 0.000000 0.401036 -0.122459
v 0.000000 0.248000 0.000000
v 0.000000 0.283272 -0.295641
v 0.000000 0.200000 -0.320000
v 0.000000 0.116728 -0.295641
v 0.041145 0.263005 0.056631
v 0.000000 -0.001036 -0.122459
v 0.000000 -0.017600 0.000000
v 0.071265 0.304000 0.098088
v 0.053133 0.401036 -0.110331
v 0.098177 0.353866 -0.203866
v 0.128274 0.283272 -0.266364
v 0.138843 0.200000 -0.288310
v 0.128274 0.116728 -0.266364
v 0.098177 0.046134 -0.203866
v 0.053133 -0.001036 -0.110331
v 0.082290 0.360000 0.113262
v 0.071265 0.416000 0.098088
v 0.095742 0.401036 -0.076352
v 0.176908 0.353866 -0.141080
v 0.231142 0.283272 -0.184329
v 0.250186 0.200000 -0.199517
v 0.231142 0.116728 -0.184329
v 0.176908 0.046134 -0.141080
v 0.095742 -0.001036 -0.076352
v 0.041145 0.456995 0.056631
v 0.000000 0.472000 0.000000
v 0.119388 0.401036 -0.027250
v 0.220601 0.353866 -0.050351
v 0.288229 0.283272 -0.065786
v 0.311977 0.200000 -0.071207
v 0.288229 0.116728 -0.065786
v 0.220601 0.046134 -0.050351
v 0.119388 -0.001036 -0.027250
v -0.052447 0.270000 0.285451
v 0.066574 0.456995 0.021631
v 0.119388 0.401036 0.027250
v 0.220601 0.353866 0.050351
v 0.288229 0.283272 0.065786
v 0.311977 0.200000 0.071207
v 0.288229 0.116728 0.065786
v 0.220601 0.046134 0.050351
v 0.119388 -0.001036 0.027250
v 0.115309 0.416000 0.037466
v 0.133148 0.360000 0.043262
v 0.095742 0.401036 0.076352
v 0.176908 0.353866 0.141080
v 0.231142 0.283272 0.184329
v 0.250186 0.200000 0.199517
v 0.231142 0.116728 0.184329
v 0.176908 0.046134 0.141080
v 0.095742 -0.001036 0.076352
v 0.115309 0.304000 0.037466
v 0.066574 0.263005 0.021631
v 0.053133 0.401036 0.110331
v 0.098177 0.353866 0.203866
v 0.128274 0.283272 0.266364
v 0.138843 0.200000 0.288310
v 0.128274 0.116728 0.266364
v 0.098177 0.046134 0.203866
v 0.053133 -0.001036 0.110331
v -0.058818 0.245000 0.283381
v -0.076224 0.226699 0.277725
v -0.000000 0.401036 0.122459
v -0.000000 0.353866 0.226274
v -0.000000 0.283272 0.295641
v -0.000000 0.200000 0.320000
v -0.000000 0.116728 0.295641
v -0.000000 0.046134 0.226274
v -0.000000 -0.001036 0.122459
v 0.066574 0.263005 -0.021631
v 0.115309 0.304000 -0.037466
v -0.053133 0.401036 0.110331
v -0.098177 0.353866 0.203866
v -0.128274 0.283272 0.266364
v -0.138843 0.200000 0.288310
v -0.128274 0.116728 0.266364
v -0.098177 0.046134 0.203866
v -0.053133 -0.001036 0.110331
v 0.133148 0.360000 -0.043262
v 0.115309 0.416000 -0.037466
v -0.095742 0.401036 0.076352
v -0.176908 0.353866 0.141080
v -0.231142 0.283272 0.184329
v -0.250186 0.200000 0.199517
v -0.231142 0.116728 0.184329
v -0.176908 0.046134 0.141080
v -0.095742 -0.001036 0.076352
v 0.066574 0.456995 -0.021631
v -0.100000 0.220000 0.270000
v -0.119388 0.401036 0.027250
v -0.220601 0.353866 0.050351
v -0.288229 0.283272 0.065786
v -0.311977 0.200000 0.071207
v -0.288229 0.116728 0.065786
v -0.220601 0.046134 0.050351
v -0.119388 -0.001036 0.027250
v 0.147553 0.270000 0.285451
v 0.041145 0.456995 -0.056631
v -0.119388 0.401036 -0.027250
v -0.220601 0.353866 -0.050351
v -0.288229 0.283272 -0.065786
v -0.311977 0.200000 -0.071207
v -0.288229 0.116728 -0.065786
v -0.220601 0.046134 -0.050351
v -0.119388 -0.001036 -0.027250
v 0.071265 0.416000 -0.098088
v 0.082290 0.360000 -0.113262
v -0.095742 0.401036 -0.076352
v -0.176908 0.353866 -0.141080
v -0.231142 0.283272 -0.184329
v -0.250186 0.200000 -0.199517
v -0.231142 0.116728 -0.184329
v -0.176908 0.046134 -0.141080
v -0.095742 -0.001036 -0.076352
v 0.071265 0.304000 -0.098088
v 0.041145 0.263005 -0.056631
v -0.053133 0.401036 -0.110331
v -0.098177 0.353866 -0.203866
v -0.128274 0.283272 -0.266364
v -0.138843 0.200000 -0.288310
v -0.128274 0.116728 -0.266364
v -0.098177 0.046134 -0.203866
v -0.053133 -0.001036 -0.110331
v -0.076224 0.226699 0.262275
v -0.058818 0.245000 0.256619
v 0.000000 0.263005 -0.070000
v 0.000000 0.353866 -0.226274
v -0.052447 0.270000 0.254549
v 0.000000 0.360000 -0.140000
v -0.058818 0.295000 0.256619
v 0.000000 0.046134 -0.226274
v 0.000000 0.456995 -0.070000
v -0.076224 0.313301 0.262275
v -0.100000 0.320000 0.270000
v 0.000000 0.263005 0.070000
v 0.000000 0.304000 0.121244
v 0.000000 0.360000 0.140000
v 0.000000 0.416000 0.121244
v 0.000000 0.456995 0.070000
v 0.141182 0.245000 0.283381
v -0.085305 0.313301 0.249775
v -0.041145 0.263005 0.056631
v -0.071265 0.304000 0.098088
v -0.082290 0.360000 0.113262
v -0.071265 0.416000 0.098088
v -0.041145 0.456995 0.056631
v -0.074548 0.295000 0.234969
v -0.070611 0.270000 0.229549
v -0.066574 0.263005 0.021631
v -0.115309 0.304000 0.037466
v -0.133148 0.360000 0.043262
v -0.115309 0.416000 0.037466
v -0.066574 0.456995 0.021631
v -0.074548 0.245000 0.234969
v -0.085305 0.226699 0.249775
v -0.066574 0.263005 -0.021631
v -0.115309 0.304000 -0.037466
v -0.133148 0.360000 -0.043262
v -0.115309 0.416000 -0.037466
v -0.066574 0.456995 -0.021631
v 0.123776 0.226699 0.277725
v 0.100000 0.220000 0.270000
v -0.041145 0.263005 -0.056631
v -0.071265 0.304000 -0.098088
v -0.082290 0.360000 -0.113262
v -0.071265 0.416000 -0.098088
v -0.041145 0.456995 -0.056631
v -0.100000 0.226699 0.245000
v -0.100000 0.270000 0.220000
v -0.000000 0.304000 -0.121244
v 0.123776 0.226699 0.262275
v -0.000000 0.416000 -0.121244
v -0.100000 0.313301 0.245000
v 0.141182 0.245000 0.256619
v -0.058818 0.295000 0.283381
v -0.076224 0.313301 0.277725
v 0.147553 0.270000 0.254549
v -0.070611 0.270000 0.310451
v -0.074548 0.245000 0.305031
v -0.085305 0.226699 0.290225
v 0.141182 0.295000 0.256619
v -0.074548 0.295000 0.305031
v -0.085305 0.313301 0.290225
v 0.123776 0.313301 0.262275
v -0.100000 0.270000 0.320000
v -0.100000 0.245000 0.313301
v -0.100000 0.226699 0.295000
v 0.100000 0.320000 0.270000
v -0.100000 0.295000 0.313301
v -0.100000 0.313301 0.295000
v -0.129389 0.270000 0.310451
v -0.125452 0.245000 0.305031
v -0.114695 0.226699 0.290225
v 0.114695 0.313301 0.249775
v -0.125452 0.295000 0.305031
v -0.114695 0.313301 0.290225
v 0.125452 0.295000 0.234969
v -0.147553 0.270000 0.285451
v -0.141182 0.245000 0.283381
v -0.123776 0.226699 0.277725
v 0.129389 0.270000 0.229549
v -0.141182 0.295000 0.283381
v -0.123776 0.313301 0.277725
v 0.125452 0.245000 0.234969
v -0.147553 0.270000 0.254549
v -0.141182 0.245000 0.256619
v -0.123776 0.226699 0.262275
v 0.114695 0.226699 0.249775
v -0.141182 0.295000 0.256619
v -0.123776 0.313301 0.262275
v -0.129389 0.270000 0.229549
v -0.125452 0.245000 0.234969
v -0.114695 0.226699 0.249775
v -0.125452 0.295000 0.234969
v -0.114695 0.313301 0.249775
v 0.100000 0.226699 0.245000
v -0.100000 0.245000 0.226699
v 0.100000 0.270000 0.220000
v -0.100000 0.295000 0.226699
v 0.100000 0.313301 0.245000
v 0.141182 0.295000 0.283381
v 0.123776 0.313301 0.277725
v 0.129389 0.270000 0.310451
v 0.125452 0.245000 0.305031
v 0.114695 0.226699 0.290225
v 0.125452 0.295000 0.305031
v 0.114695 0.313301 0.290225
v 0.100000 0.270000 0.320000
v 0.100000 0.245000 0.313301
v 0.100000 0.226699 0.295000
v 0.100000 0.295000 0.313301
v 0.100000 0.313301 0.295000
v 0.070611 0.270000 0.310451
v 0.074548 0.245000 0.305031
v 0.085305 0.226699 0.290225
v 0.074548 0.295000 0.305031
v 0.085305 0.313301 0.290225
v 0.052447 0.270000 0.285451
v 0.058818 0.245000 0.283381
v 0.076224 0.226699 0.277725
v 0.058818 0.295000 0.283381
v 0.076224 0.313301 0.277725
v 0.052447 0.270000 0.254549
v 0.058818 0.245000 0.256619
v 0.076224 0.226699 0.262275
v 0.058818 0.295000 0.256619
v 0.076224 0.313301 0.262275
v 0.070611 0.270000 0.229549
v 0.074548 0.245000 0.234969
v 0.085305 0.226699 0.249775
v 0.074548 0.295000 0.234969
v 0.085305 0.313301 0.249775
v 0.100000 0.245000 0.226699
v 0.100000 0.295000 0.226699
vn -0.0000 -0.0000 -1.0000
vn -0.0000 -0.0000 1.0000
vn -0.0000 -0.4791 -0.8778
vn -0.0000 -0.4791 0.8778
vn -0.0000 -0.4915 -0.8709
vn -0.0000 -0.4915 0.8709
vn -0.0000 -0.5478 -0.8366
vn -0.0000 -0.5478 0.8366
vn -0.0000 -0.8073 -0.5901
vn -0.0000 -0.8073 0.5901
vn -0.0000 -0.8438 -0.5367
vn -0.0000 -0.8438 0.5367
vn -0.0000 -0.8856 -0.4645
vn -0.0000 -0.8856 0.4645
vn -0.0000 -0.9553 -0.2958
vn -0.0000 -0.9553 0.2958
vn -0.0000 -1.0000 -0.0000
vn -0.0000 0.4791 -0.8778
vn -0.0000 0.4791 0.8778
vn -0.0000 0.4915 -0.8709
vn -0.0000 0.4915 0.8709
vn -0.0000 0.5478 -0.8366
vn -0.0000 0.5478 0.8366
vn -0.0000 0.8073 -0.5901
vn -0.0000 0.8073 0.5901
vn -0.0000 0.8438 -0.5367
vn -0.0000 0.8438 0.5367
vn -0.0000 0.8856 -0.4645
vn -0.0000 0.8856 0.4645
vn -0.0000 0.9553 -0.2958
vn -0.0000 0.9553 0.2958
vn -0.0000 1.0000 -0.0000
vn -0.1283 -0.9553 -0.2665
vn -0.1283 -0.9553 0.2665
vn -0.1283 0.9553 -0.2665
vn -0.1283 0.9553 0.2665
vn -0.2312 -0.9553 -0.1844
vn -0.2312 -0.9553 0.1844
vn -0.2312 0.9553 -0.1844
vn -0.2312 0.9553 0.1844
vn -0.2560 -0.8073 -0.5317
vn -0.2560 -0.8073 0.5317
vn -0.2560 0.8073 -0.5317
vn -0.2560 0.8073 0.5317
vn -0.2730 -0.8856 -0.3758
vn -0.2730 -0.8856 0.3758
vn -0.2730 0.8856 -0.3758
vn -0.2730 0.8856 0.3758
vn -0.2883 -0.9553 -0.0658
vn -0.2883 -0.9553 0.0658
vn -0.2883 0.9553 -0.0658
vn -0.2883 0.9553 0.0658
vn -0.3155 -0.8438 -0.4342
vn -0.3155 -0.8438 0.4342
vn -0.3155 0.8438 -0.4342
vn -0.3155 0.8438 0.4342
vn -0.3778 -0.4915 0.7846
vn -0.3779 -0.4915 -0.7846
vn -0.3779 0.4915 -0.7846
vn -0.3779 0.4915 0.7846
vn -0.4339 -0.0000 -0.9010
vn -0.4339 -0.0000 0.9010
vn -0.4418 -0.8856 -0.1435
vn -0.4418 -0.8856 0.1436
vn -0.4418 0.8856 -0.1436
vn -0.4418 0.8856 0.1435
vn -0.4614 -0.8073 -0.3679
vn -0.4614 -0.8073 0.3679
vn -0.4614 0.8073 -0.3679
vn -0.4614 0.8073 0.3679
vn -0.4918 -0.5478 -0.6769
vn -0.4918 -0.5478 0.6769
vn -0.4918 0.5478 -0.6769
vn -0.4918 0.5478 0.6769
vn -0.5104 -0.8438 -0.1659
vn -0.5104 -0.8438 0.1659
vn -0.5104 0.8438 -0.1659
vn -0.5104 0.8438 0.1659
vn -0.5159 -0.4791 -0.7101
vn -0.5159 -0.4791 0.7101
vn -0.5159 0.4791 -0.7101
vn -0.5159 0.4791 0.7101
vn -0.5753 -0.8073 -0.1313
vn -0.5753 -0.8073 0.1313
vn -0.5753 0.8073 -0.1313
vn -0.5753 0.8073 0.1313
vn -0.5878 -0.0000 -0.8090
vn -0.5878 -0.0000 0.8090
vn -0.6809 -0.4915 -0.5430
vn -0.6809 -0.4915 0.5430
vn -0.6809 0.4915 -0.5430
vn -0.6809 0.4915 0.5430
vn -0.7818 -0.0000 -0.6235
vn -0.7818 -0.0000 0.6235
vn -0.7957 -0.5478 -0.2585
vn -0.7957 -0.5478 0.2585
vn -0.7957 0.5478 -0.2585
vn -0.7957 0.5478 0.2585
vn -0.8348 -0.4791 -0.2713
vn -0.8348 -0.4791 0.2712
vn -0.8348 0.4791 -0.2713
vn -0.8348 0.4791 0.2712
vn -0.8490 -0.4915 -0.1938
vn -0.8490 -0.4915 0.1938
vn -0.8490 0.4915 -0.1938
vn -0.8490 0.4915 0.1938
vn -0.9511 -0.0000 -0.3090
vn -0.9511 -0.0000 0.3090
vn -0.9749 -0.0000 -0.2225
vn -0.9749 -0.0000 0.2225
vn 0.1283 -0.9553 -0.2665
vn 0.1283 -0.9553 0.2665
vn 0.1283 0.9553 -0.2665
vn 0.1283 0.9553 0.2665
vn 0.2312 -0.9553 -0.1844
vn 0.2312 -0.9553 0.1844
vn 0.2312 0.9553 -0.1844
vn 0.2312 0.9553 0.1844
vn 0.2560 -0.8073 -0.5317
vn 0.2560 -0.8073 0.5317
vn 0.2560 0.8073 -0.5317
vn 0.2560 0.8073 0.5317
vn 0.2730 -0.8856 -0.3758
vn 0.2730 -0.8856 0.3758
vn 0.2730 0.8856 -0.3758
vn 0.2730 0.8856 0.3758
vn 0.2883 -0.9553 -0.0658
vn 0.2883 -0.9553 0.0658
vn 0.2883 0.9553 -0.0658
vn 0.2883 0.9553 0.0658
vn 0.3155 -0.8438 -0.4342
vn 0.3155 -0.8438 0.4342
vn 0.3155 0.8438 -0.4342
vn 0.3155 0.8438 0.4342
vn 0.3778 -0.4915 -0.7846
vn 0.3778 0.4915 -0.7846
vn 0.3779 -0.4915 0.7846
vn 0.3779 0.4915 0.7846
vn 0.4339 -0.0000 -0.9010
vn 0.4339 -0.0000 0.9010
vn 0.4418 -0.8856 -0.1436
vn 0.4418 -0.8856 0.1436
vn 0.4418 0.8856 -0.1435
vn 0.4418 0.8856 0.1435
vn 0.4614 -0.8073 -0.3679
vn 0.4614 -0.8073 0.3679
vn 0.4614 0.8073 -0.3679
vn 0.4614 0.8073 0.3679
vn 0.4918 -0.5478 -0.6769
vn 0.4918 -0.5478 0.6769
vn 0.4918 0.5478 -0.6769
vn 0.4918 0.5478 0.6769
vn 0.5104 -0.8438 -0.1659
vn 0.5104 -0.8438 0.1659
vn 0.5104 0.8438 -0.1659
vn 0.5104 0.8438 0.1659
vn 0.5159 -0.4791 -0.7101
vn 0.5159 -0.4791 0.7101
vn 0.5159 0.4791 -0.7101
vn 0.5159 0.4791 0.7101
vn 0.5753 -0.8073 -0.1313
vn 0.5753 -0.8073 0.1313
vn 0.5753 0.8073 -0.1313
vn 0.5753 0.8073 0.1313
vn 0.5878 -0.0000 -0.8090
vn 0.5878 -0.0000 0.8090
vn 0.6809 -0.4915 -0.5430
vn 0.6809 -0.4915 0.5430
vn 0.6809 0.4915 -0.5430
vn 0.6809 0.4915 0.5430
vn 0.7818 -0.0000 -0.6235
vn 0.7818 -0.0000 0.6235
vn 0.7957 -0.5478 -0.2585
vn 0.7957 -0.5478 0.2585
vn 0.7957 0.5478 -0.2585
vn 0.7957 0.5478 0.2585
vn 0.8348 -0.4791 -0.2712
vn 0.8348 -0.4791 0.2713
vn 0.8348 0.4791 -0.2712
vn 0.8348 0.4791 0.2713
vn 0.8490 -0.4915 -0.1938
vn 0.8490 -0.4915 0.1938
vn 0.8490 0.4915 -0.1938
vn 0.8490 0.4915 0.1938
vn 0.9511 -0.0000 -0.3090
vn 0.9511 -0.0000 0.3090
vn 0.9749 -0.0000 -0.2225
vn 0.9749 -0.0000 0.2225
s 1
usemtl dg_slime
f 10//150 137//14 7//124
f 10//150 138//8 137//14
f 100//125 28//32 90//143
f 100//125 82//175 108//151
f 100//125 90//143 82//175
f 101//51 1//32 110//39
f 101//51 110//39 111//69
f 101//51 111//69 102//85
f 102//85 111//69 112//91
f 102//85 112//91 103//105
f 103//105 112//91 113//93
f 103//105 113//93 104//109
f 105//103 104//109 113//93
f 105//103 113//93 114//89
f 106//83 105//103 114//89
f 106//83 114//89 115//67
f 106//83 115//67 116//37
f 106//83 116//37 107//49
f 108//151 81//185 109//165
f 108//151 82//175 81//185
f 11//113 1//32 20//117
f 11//113 20//117 21//147
f 11//113 21//147 12//121
f 110//39 1//32 119//35
f 111//69 110//39 119//35
f 111//69 119//35 120//43
f 111//69 120//43 121//59
f 111//69 121//59 112//91
f 112//91 121//59 122//61
f 112//91 122//61 113//93
f 113//93 122//61 123//58
f 113//93 123//58 114//89
f 115//67 114//89 123//58
f 115//67 123//58 124//41
f 115//67 124//41 125//33
f 115//67 125//33 116//37
f 117//149 109//165 81//185
f 117//149 72//141 118//123
f 117//149 73//173 72//141
f 117//149 81//185 73//173
f 119//35 1//32 2//30
f 12//121 21//147 22//169
f 12//121 22//169 13//136
f 120//43 119//35 2//30
f 120//43 129//24 4//20
f 120//43 2//30 129//24
f 120//43 4//20 121//59
f 121//59 4//20 5//1
f 121//59 5//1 122//61
f 123//58 122//61 5//1
f 123//58 5//1 6//5
f 124//41 123//58 6//5
f 124//41 133//9 8//15
f 124//41 6//5 133//9
f 124//41 8//15 125//33
f 129//24 11//113 12//121
f 129//24 12//121 13//136
f 129//24 13//136 4//20
f 129//24 2//30 11//113
f 13//136 22//169 23//171
f 13//136 23//171 14//139
f 131//1 109//165 117//149
f 131//1 117//149 172//7
f 133//9 15//135 16//119
f 133//9 16//119 17//111
f 133//9 17//111 8//15
f 133//9 6//5 15//135
f 134//28 100//125 108//151
f 134//28 108//151 174//22
f 134//28 28//32 100//125
f 138//8 144//46 137//14
f 138//8 145//72 144//46
f 139//2 145//72 138//8
f 139//2 146//88 145//72
f 14//139 23//171 24//167
f 14//139 24//167 15//135
f 140//23 141//29 148//48
f 140//23 146//88 139//2
f 140//23 147//74 146//88
f 140//23 148//48 147//74
f 141//29 28//32 148//48
f 145//72 151//64 144//46
f 145//72 152//96 151//64
f 146//88 152//96 145//72
f 146//88 153//108 152//96
f 147//74 153//108 146//88
f 147//74 154//98 153//108
f 148//48 154//98 147//74
f 148//48 155//66 154//98
f 148//48 28//32 155//66
f 152//96 158//63 151//64
f 152//96 159//95 158//63
f 153//108 159//95 152//96
f 153//108 160//107 159//95
f 154//98 155//66 162//65
f 154//98 160//107 153//108
f 154//98 161//97 160//107
f 154//98 162//65 161//97
f 155//66 28//32 162//65
f 159//95 165//45 158//63
f 159//95 166//71 165//45
f 16//119 15//135 24//167
f 16//119 24//167 25//145
f 160//107 166//71 159//95
f 160//107 167//87 166//71
f 161//97 167//87 160//107
f 161//97 168//73 167//87
f 162//65 168//73 161//97
f 162//65 169//47 168//73
f 162//65 28//32 169//47
f 166//71 128//13 165//45
f 166//71 172//7 128//13
f 167//87 131//1 172//7
f 167//87 172//7 166//71
f 168//73 131//1 167//87
f 168//73 174//22 131//1
f 169//47 134//28 174//22
f 169//47 174//22 168//73
f 169//47 28//32 134//28
f 17//111 16//119 25//145
f 17//111 25//145 26//115
f 172//7 117//149 118//123
f 172//7 118//123 128//13
f 174//22 108//151 109//165
f 174//22 109//165 131//1
f 18//166 138//8 10//150
f 18//166 139//2 138//8
f 19//152 139//2 18//166
f 19//152 140//23 139//2
f 2//30 1//32 11//113
f 20//117 1//32 29//129
f 20//117 29//129 30//163
f 20//117 30//163 21//147
f 22//169 21//147 30//163
f 22//169 30//163 31//183
f 23//171 22//169 31//183
f 23//171 31//183 32//187
f 23//171 32//187 33//181
f 23//171 33//181 24//167
f 25//145 24//167 33//181
f 25//145 33//181 34//161
f 26//115 25//145 34//161
f 26//115 34//161 35//127
f 27//126 140//23 19//152
f 27//126 141//29 140//23
f 27//126 28//32 141//29
f 29//129 1//32 38//130
f 29//129 38//130 39//164
f 29//129 39//164 30//163
f 3//17 118//123 72//141
f 3//17 128//13 118//123
f 3//17 137//14 144//46
f 3//17 144//46 151//64
f 3//17 151//64 158//63
f 3//17 158//63 165//45
f 3//17 165//45 128//13
f 3//17 55//142 7//124
f 3//17 7//124 137//14
f 3//17 72//141 55//142
f 30//163 39//164 40//184
f 30//163 40//184 31//183
f 31//183 40//184 41//188
f 31//183 41//188 32//187
f 32//187 41//188 42//182
f 32//187 42//182 33//181
f 34//161 33//181 42//182
f 34//161 42//182 43//162
f 35//127 34//161 43//162
f 35//127 43//162 44//128
f 37//144 28//32 27//126
f 38//130 1//32 47//118
f 38//130 47//118 48//148
f 38//130 48//148 39//164
f 39//164 48//148 49//170
f 39//164 49//170 40//184
f 40//184 49//170 50//172
f 40//184 50//172 41//188
f 42//182 41//188 50//172
f 42//182 50//172 51//168
f 42//182 51//168 52//146
f 42//182 52//146 43//162
f 43//162 52//146 53//116
f 43//162 53//116 44//128
f 45//176 18//166 46//186
f 45//176 19//152 18//166
f 45//176 27//126 19//152
f 45//176 37//144 27//126
f 46//186 10//150 54//174
f 46//186 18//166 10//150
f 47//118 1//32 56//114
f 47//118 56//114 57//122
f 47//118 57//122 48//148
f 48//148 57//122 58//138
f 48//148 58//138 49//170
f 49//170 58//138 59//140
f 49//170 59//140 50//172
f 5//1 13//136 14//139
f 5//1 14//139 15//135
f 5//1 15//135 6//5
f 5//1 4//20 13//136
f 50//172 59//140 60//137
f 50//172 60//137 51//168
f 52//146 51//168 60//137
f 52//146 60//137 61//120
f 52//146 61//120 62//112
f 52//146 62//112 53//116
f 55//142 10//150 7//124
f 55//142 54//174 10//150
f 56//114 1//32 65//31
f 56//114 65//31 66//25
f 56//114 66//25 57//122
f 57//122 66//25 67//21
f 57//122 67//21 58//138
f 58//138 67//21 68//2
f 58//138 68//2 59//140
f 59//140 68//2 69//6
f 59//140 69//6 60//137
f 60//137 69//6 70//10
f 60//137 70//10 61//120
f 61//120 70//10 71//16
f 61//120 71//16 62//112
f 65//31 1//32 74//36
f 65//31 74//36 75//44
f 65//31 75//44 66//25
f 66//25 75//44 76//60
f 66//25 76//60 67//21
f 67//21 76//60 77//62
f 67//21 77//62 68//2
f 68//2 77//62 78//57
f 68//2 78//57 69//6
f 70//10 69//6 78//57
f 70//10 78//57 79//42
f 70//10 79//42 80//34
f 70//10 80//34 71//16
f 73//173 54//174 55//142
f 73//173 55//142 72//141
f 74//36 1//32 83//40
f 74//36 83//40 84//70
f 74//36 84//70 75//44
f 75//44 84//70 85//92
f 75//44 85//92 76//60
f 76//60 85//92 86//94
f 76//60 86//94 77//62
f 77//62 86//94 87//90
f 77//62 87//90 78//57
f 79//42 78//57 87//90
f 79//42 87//90 88//68
f 79//42 88//68 89//38
f 79//42 89//38 80//34
f 81//185 46//186 54//174
f 81//185 54//174 73//173
f 82//175 45//176 46//186
f 82//175 46//186 81//185
f 83//40 1//32 92//52
f 83//40 92//52 93//86
f 83//40 93//86 84//70
f 84//70 93//86 94//106
f 84//70 94//106 85//92
f 85//92 94//106 95//110
f 85//92 95//110 86//94
f 86//94 95//110 96//104
f 86//94 96//104 87//90
f 88//68 87//90 96//104
f 88//68 96//104 97//84
f 88//68 97//84 98//50
f 88//68 98//50 89//38
f 9//17 107//49 116//37
f 9//17 116//37 125//33
f 9//17 125//33 8//15
f 9//17 17//111 26//115
f 9//17 26//115 35//127
f 9//17 35//127 44//128
f 9//17 44//128 53//116
f 9//17 53//116 62//112
f 9//17 62//112 71//16
f 9//17 71//16 80//34
f 9//17 8//15 17//111
f 9//17 80//34 89//38
f 9//17 89//38 98//50
f 9//17 98//50 107//49
f 90//143 28//32 37//144
f 90//143 37//144 45//176
f 90//143 45//176 82//175
f 92//52 1//32 101//51
f 93//86 101//51 102//85
f 93//86 102//85 103//105
f 93//86 103//105 94//106
f 93//86 92//52 101//51
f 94//106 103//105 104//109
f 94//106 104//109 95//110
f 95//110 104//109 105//103
f 95//110 105//103 96//104
f 97//84 105//103 106//83
f 97//84 96//104 105//103
f 98//50 106//83 107//49
f 98//50 97//84 106//83
usemtl dg_eye
f 127//177 130//185 36//186
f 127//177 36//186 63//178
f 127//177 63//178 64//154
f 127//177 64//154 126//153
f 132//179 135//155 178//156
f 132//179 177//180 36//186
f 132//179 178//156 177//180
f 132//179 36//186 130//185
f 135//155 136//32 178//156
f 142//178 225//166 226//158
f 142//178 226//158 227//132
f 142//178 227//132 163//154
f 142//178 99//186 225//166
f 143//133 132//179 149//159
f 143//133 135//155 132//179
f 143//133 136//32 135//155
f 149//159 130//185 150//165
f 149//159 132//179 130//185
f 156//157 126//153 157//131
f 156//157 127//177 126//153
f 156//157 130//185 127//177
f 156//157 150//165 130//185
f 164//17 163//154 227//132
f 164//17 173//153 163//154
f 164//17 210//131 173//153
f 164//17 218//11 210//131
f 164//17 227//132 232//12
f 164//17 232//12 237//54
f 164//17 237//54 242//76
f 164//17 242//76 247//75
f 164//17 247//75 252//53
f 164//17 252//53 218//11
f 171//1 150//165 156//157
f 171//1 156//157 219//3
f 175//26 136//32 143//133
f 176//177 142//178 163//154
f 176//177 163//154 173//153
f 176//177 179//185 99//186
f 176//177 99//186 142//178
f 177//180 180//166 36//186
f 177//180 184//160 180//166
f 178//156 136//32 185//134
f 178//156 184//160 177//180
f 178//156 185//134 184//160
f 180//166 184//160 191//19
f 180//166 191//19 187//2
f 181//158 180//166 187//2
f 181//158 187//2 188//4
f 181//158 188//4 189//12
f 181//158 189//12 182//132
f 183//179 186//155 224//156
f 183//179 223//180 99//186
f 183//179 224//156 223//180
f 183//179 99//186 179//185
f 185//134 136//32 192//27
f 185//134 191//19 184//160
f 185//134 192//27 191//19
f 186//155 190//32 224//156
f 188//4 187//2 193//88
f 188//4 193//88 194//80
f 188//4 194//80 195//54
f 188//4 195//54 189//12
f 191//19 192//27 198//56
f 191//19 193//88 187//2
f 191//19 197//82 193//88
f 191//19 198//56 197//82
f 192//27 136//32 198//56
f 194//80 193//88 200//108
f 194//80 200//108 201//100
f 195//54 194//80 201//100
f 195//54 201//100 202//76
f 196//133 183//179 199//159
f 196//133 186//155 183//179
f 196//133 190//32 186//155
f 197//82 200//108 193//88
f 197//82 204//102 200//108
f 198//56 136//32 205//78
f 198//56 204//102 197//82
f 198//56 205//78 204//102
f 199//159 179//185 203//165
f 199//159 183//179 179//185
f 201//100 200//108 207//107
f 201//100 207//107 208//99
f 201//100 208//99 209//75
f 201//100 209//75 202//76
f 204//102 207//107 200//108
f 204//102 211//101 207//107
f 205//78 136//32 212//77
f 205//78 211//101 204//102
f 205//78 212//77 211//101
f 206//157 179//185 176//177
f 206//157 203//165 179//185
f 208//99 207//107 213//87
f 208//99 213//87 214//79
f 208//99 214//79 215//53
f 208//99 215//53 209//75
f 210//131 176//177 173//153
f 210//131 206//157 176//177
f 211//101 212//77 217//55
f 211//101 213//87 207//107
f 211//101 216//81 213//87
f 211//101 217//55 216//81
f 212//77 136//32 217//55
f 213//87 171//1 219//3
f 213//87 219//3 214//79
f 215//53 214//79 219//3
f 215//53 219//3 170//11
f 216//81 171//1 213//87
f 216//81 175//26 221//18
f 216//81 217//55 175//26
f 216//81 221//18 171//1
f 217//55 136//32 175//26
f 219//3 156//157 157//131
f 219//3 157//131 170//11
f 221//18 143//133 149//159
f 221//18 149//159 150//165
f 221//18 150//165 171//1
f 221//18 175//26 143//133
f 222//26 190//32 196//133
f 223//180 224//156 229//134
f 223//180 225//166 99//186
f 223//180 228//160 225//166
f 223//180 229//134 228//160
f 224//156 190//32 229//134
f 226//158 225//166 230//2
f 226//158 230//2 231//4
f 227//132 226//158 231//4
f 227//132 231//4 232//12
f 228//160 230//2 225//166
f 228//160 233//19 230//2
f 229//134 190//32 234//27
f 229//134 233//19 228//160
f 229//134 234//27 233//19
f 230//2 235//88 236//80
f 230//2 236//80 231//4
f 232//12 231//4 236//80
f 232//12 236//80 237//54
f 233//19 234//27 239//56
f 233//19 235//88 230//2
f 233//19 238//82 235//88
f 233//19 239//56 238//82
f 234//27 190//32 239//56
f 236//80 235//88 240//108
f 236//80 240//108 241//100
f 237//54 236//80 241//100
f 237//54 241//100 242//76
f 238//82 239//56 244//78
f 238//82 240//108 235//88
f 238//82 243//102 240//108
f 238//82 244//78 243//102
f 239//56 190//32 244//78
f 241//100 240//108 245//107
f 241//100 245//107 246//99
f 241//100 246//99 247//75
f 241//100 247//75 242//76
f 243//102 244//78 249//77
f 243//102 245//107 240//108
f 243//102 248//101 245//107
f 243//102 249//77 248//101
f 244//78 190//32 249//77
f 246//99 245//107 250//87
f 246//99 250//87 251//79
f 246//99 251//79 252//53
f 246//99 252//53 247//75
f 248//101 249//77 254//55
f 248//101 250//87 245//107
f 248//101 253//81 250//87
f 248//101 254//55 253//81
f 249//77 190//32 254//55
f 250//87 220//1 255//3
f 250//87 255//3 251//79
f 251//79 218//11 252//53
f 251//79 255//3 218//11
f 253//81 220//1 250//87
f 253//81 256//18 220//1
f 254//55 190//32 222//26
f 254//55 222//26 256//18
f 254//55 256//18 253//81
f 255//3 203//165 206//157
f 255//3 206//157 210//131
f 255//3 210//131 218//11
f 255//3 220//1 203//165
f 256//18 196//133 199//159
f 256//18 199//159 203//165
f 256//18 203//165 220//1
f 256//18 222//26 196//133
f 63//178 180//166 181//158
f 63//178 181//158 182//132
f 63//178 182//132 64//154
f 63//178 36//186 180//166
f 91//17 126//153 64//154
f 91//17 157//131 126//153
f 91//17 170//11 157//131
f 91//17 182//132 189//12
f 91//17 189//12 195//54
f 91//17 195//54 202//76
f 91//17 202//76 209//75
f 91//17 209//75 215//53
f 91//17 215//53 170//11
f 91//17 64//154 182//132
